<?xml version="1.0" encoding="UTF-8"?>
<svg id="Layer_1" data-name="Layer 1" xmlns="http://www.w3.org/2000/svg" xmlns:xlink="http://www.w3.org/1999/xlink" viewBox="0 0 16 16">
  <defs>
    <style>
      .cls-1 {
        fill: url(#linear-gradient);
      }
    </style>
    <linearGradient id="linear-gradient" x1="8" y1="27.03" x2="8" y2=".61" gradientUnits="userSpaceOnUse">
      <stop offset="0" stop-color="#6d1ac7"/>
      <stop offset="1" stop-color="#a84fff"/>
    </linearGradient>
  </defs>
  <path class="cls-1" d="m15.55,7.83c-.01-.31-.03-.61-.09-.91-.14-.7-.43-1.27-.87-1.71-.44-.44-1.01-.73-1.71-.87-.3-.06-.61-.08-.91-.09-.49-.02-.98-.03-1.48-.03h-1.61l-.31-1.84c.4-.21.69-.62.69-1.11C9.26.57,8.7,0,8,0s-1.26.57-1.26,1.26c0,.49.28.9.69,1.11l-.31,1.84h-1.61c-.49,0-.98.01-1.48.03-.31.01-.61.03-.91.09-.7.14-1.27.43-1.71.87-.44.44-.73,1.01-.87,1.71-.06.3-.08.61-.09.91-.02.48-.03.96-.03,1.44H.42c0,.48.01.96.03,1.44.01.31.03.61.09.91.14.7.43,1.27.87,1.71.44.44,1.01.73,1.71.87.3.06.61.08.91.09.49.02.98.03,1.48.03h2.49v.84c0,.61.62,1.02,1.18.77l4.53-2h0c.34-.15.63-.35.88-.61.44-.44.73-1.01.87-1.71.06-.3.08-.61.09-.91.02-.48.03-.96.03-1.44h0c0-.48-.01-.96-.03-1.44Zm-9.41,2.53c-.02.21-.2.38-.42.38h-.52c-.22,0-.4-.16-.42-.38-.08-.73-.08-1.46,0-2.2.02-.21.2-.38.42-.38h.52c.22,0,.4.16.42.38.08.73.08,1.46,0,2.19Zm5.08,0c-.02.21-.2.38-.42.38h-.52c-.22,0-.4-.16-.42-.38-.08-.73-.08-1.46,0-2.2.02-.21.2-.38.42-.38h.52c.22,0,.4.16.42.38.08.73.08,1.46,0,2.19Z"/>
</svg>