<?xml version="1.0" encoding="UTF-8"?>
<svg id="Layer_1" data-name="Layer 1" xmlns="http://www.w3.org/2000/svg" xmlns:xlink="http://www.w3.org/1999/xlink" viewBox="0 0 32 32">
  <defs>
    <style>
      .cls-1 {
        fill: url(#linear-gradient);
      }
    </style>
    <linearGradient id="linear-gradient" x1="16" y1="54.06" x2="16" y2="1.23" gradientUnits="userSpaceOnUse">
      <stop offset="0" stop-color="#6d1ac7"/>
      <stop offset="1" stop-color="#a84fff"/>
    </linearGradient>
  </defs>
  <path class="cls-1" d="m31.09,15.65c-.02-.61-.06-1.23-.18-1.83-.28-1.4-.86-2.54-1.74-3.42-.88-.88-2.02-1.46-3.42-1.74-.6-.12-1.22-.16-1.83-.18-.98-.04-1.97-.06-2.95-.06-.03,0-.05,0-.08,0h-3.91l-.29-3.47c1.06-.3,1.83-1.27,1.83-2.43,0-1.4-1.13-2.53-2.53-2.53s-2.53,1.13-2.53,2.53c0,1.15.78,2.13,1.83,2.43l-.29,3.47h-3.91s-.05,0-.08,0c-.98,0-1.97.03-2.95.06-.61.02-1.23.06-1.83.18-1.4.28-2.54.86-3.42,1.74-.88.88-1.46,2.02-1.74,3.42-.12.6-.16,1.22-.18,1.83-.04.96-.06,1.92-.06,2.87h0c0,.96.03,1.92.06,2.88.02.61.06,1.23.18,1.83.28,1.4.86,2.54,1.74,3.42.88.88,2.02,1.46,3.42,1.74.6.12,1.22.16,1.83.18.98.04,1.97.06,2.95.06h4.97v1.68c0,1.21,1.25,2.03,2.36,1.54l9.05-4h0c.67-.31,1.26-.71,1.76-1.21.88-.88,1.46-2.02,1.74-3.42.12-.6.16-1.22.18-1.83.04-.96.06-1.92.06-2.87h0c0-.96-.03-1.92-.06-2.88Zm-18.82,5.07c-.05.43-.41.75-.84.75h-1.04c-.43,0-.79-.32-.84-.75-.16-1.46-.16-2.93,0-4.39.05-.43.41-.75.84-.75h1.04c.43,0,.79.32.84.75.16,1.46.16,2.93,0,4.39Zm10.16,0c-.05.43-.41.75-.84.75h-1.04c-.43,0-.79-.32-.84-.75-.16-1.46-.16-2.93,0-4.39.05-.43.41-.75.84-.75h1.04c.43,0,.79.32.84.75.16,1.46.16,2.93,0,4.39Z"/>
</svg>