<?xml version="1.0" encoding="UTF-8"?>
<svg id="Layer_1" data-name="Layer 1" xmlns="http://www.w3.org/2000/svg" xmlns:xlink="http://www.w3.org/1999/xlink" viewBox="0 0 1024 1024">
  <defs>
    <style>
      .cls-1 {
        fill: url(#linear-gradient);
      }
    </style>
    <linearGradient id="linear-gradient" x1="512" y1="1729.82" x2="512" y2="39.21" gradientUnits="userSpaceOnUse">
      <stop offset="0" stop-color="#6d1ac7"/>
      <stop offset="1" stop-color="#a84fff"/>
    </linearGradient>
  </defs>
  <path class="cls-1" d="m994.99,500.85c-.74-19.54-2.04-39.31-5.87-58.42-8.96-44.7-27.42-81.35-55.64-109.38-28.03-28.22-64.68-46.68-109.38-55.64-19.11-3.83-38.89-5.12-58.42-5.87-31.48-1.2-63.02-2.06-94.53-2.06-.85,0-1.69,0-2.54,0h-125.17l-9.25-110.95c33.84-9.65,58.65-40.74,58.65-77.68,0-44.65-36.19-80.84-80.84-80.84s-80.84,36.19-80.84,80.84c0,36.94,24.81,68.03,58.65,77.68l-9.25,110.95h-125.17c-.85,0-1.7,0-2.54,0-31.51,0-63.05.86-94.53,2.06-19.53.75-39.31,2.04-58.42,5.87-44.7,8.96-81.35,27.42-109.38,55.64-28.22,28.03-46.68,64.68-55.64,109.38-3.83,19.11-5.12,38.88-5.87,58.42-1.17,30.63-2.02,61.31-2.06,91.96v.06c.04,30.66.89,61.34,2.06,91.96.75,19.54,2.04,39.32,5.87,58.42,8.96,44.7,27.42,81.35,55.64,109.38,28.03,28.22,64.68,46.68,109.38,55.64,19.11,3.83,38.89,5.12,58.42,5.87,31.48,1.2,63.02,2.06,94.53,2.06h159.14v53.84c0,38.85,39.86,64.94,75.46,49.39l289.76-128-.2-.06c21.53-9.8,40.45-22.62,56.46-38.74,28.22-28.03,46.68-64.68,55.64-109.38,3.83-19.11,5.13-38.89,5.87-58.42,1.17-30.62,2.01-61.3,2.06-91.96v-.06c-.05-30.66-.89-61.34-2.06-91.96Zm-602.17,162.23c-1.46,13.7-13.07,24.08-26.84,24.08h-33.16c-13.77,0-25.38-10.38-26.84-24.07-4.98-46.79-4.98-93.62,0-140.48,1.46-13.7,13.07-24.08,26.84-24.08h33.16c13.77,0,25.38,10.38,26.84,24.07,4.98,46.79,4.98,93.62,0,140.48Zm325.19,0c-1.46,13.7-13.07,24.08-26.84,24.08h-33.16c-13.77,0-25.38-10.38-26.84-24.07-4.98-46.79-4.98-93.62,0-140.48,1.46-13.7,13.07-24.08,26.84-24.08h33.16c13.77,0,25.38,10.38,26.84,24.07,4.98,46.79,4.98,93.62,0,140.48Z"/>
</svg>