<?xml version="1.0" encoding="UTF-8"?>
<svg id="Layer_1" data-name="Layer 1" xmlns="http://www.w3.org/2000/svg" xmlns:xlink="http://www.w3.org/1999/xlink" viewBox="0 0 512 512">
  <defs>
    <style>
      .cls-1 {
        fill: url(#linear-gradient);
      }
    </style>
    <linearGradient id="linear-gradient" x1="256" y1="864.91" x2="256" y2="19.61" gradientUnits="userSpaceOnUse">
      <stop offset="0" stop-color="#6d1ac7"/>
      <stop offset="1" stop-color="#a84fff"/>
    </linearGradient>
  </defs>
  <path class="cls-1" d="m497.5,250.43c-.37-9.77-1.02-19.66-2.94-29.21-4.48-22.35-13.71-40.68-27.82-54.69-14.02-14.11-32.34-23.34-54.69-27.82-9.55-1.92-19.44-2.56-29.21-2.94-15.74-.6-31.51-1.03-47.26-1.03-.42,0-.85,0-1.27,0h-62.58l-4.62-55.48c16.92-4.83,29.32-20.37,29.32-38.84,0-22.32-18.1-40.42-40.42-40.42s-40.42,18.1-40.42,40.42c0,18.47,12.4,34.01,29.32,38.84l-4.62,55.48h-62.58c-.42,0-.85,0-1.27,0-15.76,0-31.52.43-47.26,1.03-9.77.37-19.66,1.02-29.21,2.94-22.35,4.48-40.67,13.71-54.69,27.82-14.11,14.01-23.34,32.34-27.82,54.69-1.92,9.55-2.56,19.44-2.94,29.21-.58,15.31-1.01,30.65-1.03,45.98h0v.03c.02,15.33.45,30.67,1.03,45.98.37,9.77,1.02,19.66,2.94,29.21,4.48,22.35,13.71,40.67,27.82,54.69,14.02,14.11,32.34,23.34,54.69,27.82,9.55,1.92,19.44,2.56,29.21,2.93,15.74.6,31.51,1.03,47.27,1.03h79.57v26.92c0,19.43,19.93,32.47,37.73,24.7l144.88-64-.1-.03c10.76-4.9,20.22-11.31,28.23-19.37,14.11-14.02,23.34-32.34,27.82-54.69,1.92-9.55,2.56-19.44,2.94-29.21.58-15.31,1.01-30.65,1.03-45.98h0v-.03c-.02-15.33-.45-30.67-1.03-45.98Zm-301.08,81.11c-.73,6.85-6.53,12.04-13.42,12.04h-16.58c-6.89,0-12.69-5.19-13.42-12.04-2.49-23.4-2.49-46.81,0-70.24.73-6.85,6.53-12.04,13.42-12.04h16.58c6.89,0,12.69,5.19,13.42,12.04,2.49,23.4,2.49,46.81,0,70.24Zm162.59,0c-.73,6.85-6.53,12.04-13.42,12.04h-16.58c-6.89,0-12.69-5.19-13.42-12.04-2.49-23.4-2.49-46.81,0-70.24.73-6.85,6.53-12.04,13.42-12.04h16.58c6.89,0,12.69,5.19,13.42,12.04,2.49,23.4,2.49,46.81,0,70.24Z"/>
</svg>