<?xml version="1.0" encoding="UTF-8"?>
<svg id="Layer_1" data-name="Layer 1" xmlns="http://www.w3.org/2000/svg" viewBox="0 0 1024 1024">
  <defs>
    <style>
      .cls-1 {
        fill: #fff;
      }
    </style>
  </defs>
  <path class="cls-1" d="m683.91,236.86c-1.99-9.95-5.63-17.42-11.12-22.88l-.08-.08-.09-.09c-5.45-5.48-12.93-9.13-22.87-11.13-4.97-.98-11.02-1.33-16.3-1.53-13.35-.5-24.19-.75-34.09-.75h-119.37c-9.91,0-20.74.25-34.09.75-5.28.2-11.34.55-16.31,1.53-9.94,2-17.42,5.64-22.87,11.13l-.08.09-.08.08c-5.48,5.45-9.12,12.92-11.12,22.88-1,4.97-1.34,11.02-1.54,16.3-.5,12.98-.73,23.53-.75,33.19.02,9.59.25,20.13.75,33.13.2,5.27.54,11.33,1.54,16.3,1.99,9.95,5.63,17.42,11.12,22.88l.08.08.08.08c5.45,5.48,12.94,9.14,22.87,11.13,4.97,1,11.03,1.33,16.31,1.53,13.36.52,24.19.73,34.1.73h84.95c5.58,0,10.09,4.55,10.09,10.13v18.27c0,1.83,1.87,3.05,3.55,2.31l45.77-20.22,35.39-15.64c1.16-.45,2.25-.94,3.31-1.45l.66-.3-.02-.06c3.43-1.75,6.41-3.88,8.92-6.42l.09-.08.08-.08c5.48-5.45,9.12-12.92,11.12-22.88,1-4.97,1.34-11.03,1.54-16.3.49-13,.73-23.53.74-33.2-.02-9.58-.25-20.13-.74-33.11-.2-5.28-.54-11.33-1.54-16.3Zm-188.93,75.78c-.54,5.14-4.9,9.03-10.06,9.03h-12.44c-5.16,0-9.52-3.89-10.06-9.02-1.87-17.56-1.87-35.11,0-52.69.54-5.14,4.9-9.03,10.06-9.03h12.44c5.16,0,9.52,3.89,10.06,9.03,1.87,17.53,1.87,35.11,0,52.67Zm121.94,0c-.55,5.14-4.91,9.03-10.06,9.03h-12.44c-5.16,0-9.52-3.89-10.06-9.02-1.87-17.56-1.87-35.11,0-52.69.55-5.14,4.91-9.03,10.06-9.03h12.44c5.16,0,9.52,3.89,10.06,9.03,1.87,17.53,1.87,35.11,0,52.67Z"/>
  <path class="cls-1" d="m1024,346.72c.05-34.19-.87-68.34-2.17-102.47-.8-20.63-2.16-41.5-6.2-61.69-9.45-47.19-28.94-85.84-58.72-115.44-29.59-29.78-68.28-49.28-115.47-58.75-20.17-4.03-41.05-5.41-61.66-6.19C745.66.88,711.47-.03,677.31,0h-330.61c-34.16-.03-68.34.88-102.47,2.19-20.62.78-41.5,2.16-61.67,6.19-47.19,9.47-85.86,28.97-115.45,58.75-29.78,29.59-49.27,68.25-58.73,115.44-4.05,20.19-5.41,41.06-6.19,61.69C.88,278.38-.05,312.54,0,346.72v330.58c-.03,29.19.86,58.41,1.86,87.59.11-2.91.2-5.78.33-8.66.78-20.63,2.14-41.5,6.19-61.69,9.47-47.19,28.95-85.84,58.73-115.44,29.59-29.78,68.27-49.28,115.45-58.75,20.17-4.03,41.05-5.41,61.67-6.19,34.12-1.31,68.31-2.22,102.47-2.19h167.05c128,0,158.25,92.72,158.25,128h-325.3c-34.16-.03-68.34.88-102.47,2.19-20.62.78-41.5,2.16-61.67,6.19-47.19,9.47-85.86,28.97-115.45,58.75-29.78,29.59-49.27,68.25-58.73,115.44-.55,2.78-1.03,5.56-1.48,8.34.55,3.5.8,7.06,1.48,10.53,9.47,47.19,28.95,85.88,58.73,115.47,29.59,29.78,68.27,49.28,115.45,58.72,20.17,4.06,41.05,5.41,61.67,6.22,34.12,1.28,68.31,2.22,102.47,2.16h330.61c34.16.06,68.34-.88,102.47-2.16,20.61-.81,41.48-2.16,61.66-6.22,47.19-9.44,85.87-28.94,115.47-58.72,8.81-8.75,16.44-18.56,23.45-28.91h-52.36v-128h92.59c.47-6.75.97-13.5,1.23-20.22,1.3-34.13,2.22-68.31,2.17-102.47v-37.31h-96c0-49.28-30.25-128-191.92-128,70.66.06,127.92,57.34,127.92,128v332.1c0,14.78-15.55,24.41-28.78,17.78l-26.33-13.16c-5.59-2.81-12.17-2.81-17.78,0l-26.33,13.16c-13.22,6.63-28.78-3-28.78-17.78v-332.1c0-70.66-57.27-127.94-127.92-128h415.92v-165.27Zm-352,581.27H192c-35.34,0-64-28.66-64-64s28.66-64,64-64h480v128Zm49.57-641.68h0c-.02,11.5-.34,23.02-.78,34.5-.27,7.31-.76,14.73-2.2,21.91-3.36,16.77-10.29,30.5-20.87,41-6,6.06-13.09,10.86-21.17,14.53l.08.03-108.66,48c-13.35,5.84-28.3-3.95-28.3-18.53v-20.17h-59.68c-11.82,0-23.65-.33-35.45-.78-7.33-.28-14.74-.77-21.91-2.2-16.77-3.36-30.51-10.28-41.02-20.88-10.58-10.5-17.51-24.23-20.87-41-1.44-7.17-1.92-14.59-2.2-21.91-.44-11.48-.75-23-.77-34.5h0v-.02c.02-11.5.33-23,.77-34.48.28-7.33.77-14.75,2.2-21.91,3.36-16.77,10.29-30.52,20.87-41.02,10.51-10.58,24.25-17.5,41.02-20.88,7.16-1.44,14.58-1.92,21.91-2.2,11.8-.44,23.63-.77,35.45-.77h38.55l7.36-44.17c-9.71-5.05-16.54-14.86-16.54-26.56,0-16.75,13.57-30.31,30.32-30.31s30.31,13.56,30.31,30.31c0,11.7-6.83,21.52-16.54,26.56l7.37,44.17h38.54c11.81,0,23.63.33,35.45.77,7.33.28,14.74.77,21.91,2.2,16.77,3.38,30.5,10.3,41.02,20.88,10.58,10.5,17.51,24.25,20.87,41.02,1.44,7.16,1.92,14.58,2.2,21.91.45,11.48.76,22.98.78,34.48v.02Z"/>
</svg>