<?xml version="1.0" encoding="UTF-8"?>
<svg id="Layer_1" data-name="Layer 1" xmlns="http://www.w3.org/2000/svg" viewBox="0 0 128 128">
  <defs>
    <style>
      .cls-1 {
        fill: #fff;
      }
    </style>
  </defs>
  <path class="cls-1" d="m85.49,29.61c-.25-1.24-.7-2.18-1.39-2.86h0s-.01-.02-.01-.02c-.68-.69-1.62-1.14-2.86-1.39-.62-.12-1.38-.17-2.04-.19-1.67-.06-3.02-.09-4.26-.09h-14.92c-1.24,0-2.59.03-4.26.09-.66.03-1.42.07-2.04.19-1.24.25-2.18.71-2.86,1.39h0s0,.02,0,.02c-.69.68-1.14,1.62-1.39,2.86-.12.62-.17,1.38-.19,2.04-.06,1.62-.09,2.94-.09,4.15,0,1.2.03,2.52.09,4.14.03.66.07,1.42.19,2.04.25,1.24.7,2.18,1.39,2.86h0s0,.02,0,.02c.68.69,1.62,1.14,2.86,1.39.62.13,1.38.17,2.04.19,1.67.06,3.02.09,4.26.09h10.62c.7,0,1.26.57,1.26,1.27v2.28c0,.23.23.38.44.29l5.72-2.53,4.42-1.96c.14-.06.28-.12.41-.18l.08-.04h0c.43-.23.8-.49,1.12-.81h.01s0-.02,0-.02c.69-.68,1.14-1.62,1.39-2.86.12-.62.17-1.38.19-2.04.06-1.63.09-2.94.09-4.15,0-1.2-.03-2.52-.09-4.14-.03-.66-.07-1.42-.19-2.04Zm-23.62,9.47c-.07.64-.61,1.13-1.26,1.13h-1.55c-.65,0-1.19-.49-1.26-1.13-.23-2.2-.23-4.39,0-6.59.07-.64.61-1.13,1.26-1.13h1.55c.65,0,1.19.49,1.26,1.13.23,2.19.23,4.39,0,6.58Zm15.24,0c-.07.64-.61,1.13-1.26,1.13h-1.55c-.65,0-1.19-.49-1.26-1.13-.23-2.2-.23-4.39,0-6.59.07-.64.61-1.13,1.26-1.13h1.55c.64,0,1.19.49,1.26,1.13.23,2.19.23,4.39,0,6.58Z"/>
  <path class="cls-1" d="m128,43.34c0-4.27-.11-8.54-.27-12.81-.1-2.58-.27-5.19-.78-7.71-1.18-5.9-3.62-10.73-7.34-14.43-3.7-3.72-8.54-6.16-14.43-7.34-2.52-.5-5.13-.68-7.71-.77C93.21.11,88.93,0,84.66,0h-41.33c-4.27,0-8.54.11-12.81.27-2.58.1-5.19.27-7.71.77-5.9,1.18-10.73,3.62-14.43,7.34-3.72,3.7-6.16,8.53-7.34,14.43-.51,2.52-.68,5.13-.77,7.71C.11,34.8,0,39.07,0,43.34v41.32c0,3.65.11,7.3.23,10.95.01-.36.03-.72.04-1.08.1-2.58.27-5.19.77-7.71,1.18-5.9,3.62-10.73,7.34-14.43,3.7-3.72,8.53-6.16,14.43-7.34,2.52-.5,5.13-.68,7.71-.77,4.27-.16,8.54-.28,12.81-.27h20.88c16,0,19.78,11.59,19.78,16h-40.66c-4.27,0-8.54.11-12.81.27-2.58.1-5.19.27-7.71.77-5.9,1.18-10.73,3.62-14.43,7.34-3.72,3.7-6.16,8.53-7.34,14.43-.07.35-.13.7-.19,1.04.07.44.1.88.19,1.32,1.18,5.9,3.62,10.73,7.34,14.43,3.7,3.72,8.53,6.16,14.43,7.34,2.52.51,5.13.68,7.71.78,4.27.16,8.54.28,12.81.27h41.33c4.27,0,8.54-.11,12.81-.27,2.58-.1,5.19-.27,7.71-.78,5.9-1.18,10.73-3.62,14.43-7.34,1.1-1.09,2.05-2.32,2.93-3.61h-6.54v-16h11.57c.06-.84.12-1.69.15-2.53.16-4.27.28-8.54.27-12.81v-4.66h-12c0-6.16-3.78-16-23.99-16,8.83,0,15.99,7.17,15.99,16v41.51c0,1.85-1.94,3.05-3.6,2.22l-3.29-1.64c-.7-.35-1.52-.35-2.22,0l-3.29,1.64c-1.65.83-3.6-.38-3.6-2.22v-41.51c0-8.83-7.16-15.99-15.99-16h51.99v-20.66Zm-44,72.66H24c-4.42,0-8-3.58-8-8s3.58-8,8-8h60v16Zm6.2-80.21h0c0,1.44-.04,2.88-.1,4.31-.03.91-.09,1.84-.27,2.74-.42,2.1-1.29,3.81-2.61,5.13-.75.76-1.64,1.36-2.65,1.82h0s-13.58,6-13.58,6c-1.67.73-3.54-.49-3.54-2.32v-2.52h-7.46c-1.48,0-2.96-.04-4.43-.1-.92-.04-1.84-.1-2.74-.28-2.1-.42-3.81-1.29-5.13-2.61-1.32-1.31-2.19-3.03-2.61-5.13-.18-.9-.24-1.82-.28-2.74-.05-1.44-.09-2.88-.1-4.31h0c0-1.44.04-2.88.1-4.31.04-.92.1-1.84.28-2.74.42-2.1,1.29-3.81,2.61-5.13,1.31-1.32,3.03-2.19,5.13-2.61.9-.18,1.82-.24,2.74-.28,1.48-.05,2.95-.1,4.43-.1h4.82l.92-5.52c-1.21-.63-2.07-1.86-2.07-3.32,0-2.09,1.7-3.79,3.79-3.79s3.79,1.7,3.79,3.79c0,1.46-.85,2.69-2.07,3.32l.92,5.52h4.82c1.48,0,2.95.04,4.43.1.92.04,1.84.1,2.74.28,2.1.42,3.81,1.29,5.13,2.61,1.32,1.31,2.19,3.03,2.61,5.13.18.89.24,1.82.27,2.74.06,1.44.09,2.87.1,4.31h0Z"/>
</svg>