<?xml version="1.0" encoding="UTF-8"?>
<svg id="Layer_1" data-name="Layer 1" xmlns="http://www.w3.org/2000/svg" viewBox="0 0 512 512">
  <defs>
    <style>
      .cls-1 {
        fill: #fff;
      }
    </style>
  </defs>
  <path class="cls-1" d="m341.96,118.43c-1-4.98-2.82-8.71-5.56-11.44l-.04-.04-.04-.05c-2.72-2.74-6.46-4.56-11.44-5.56-2.48-.49-5.51-.66-8.15-.77-6.68-.25-12.09-.38-17.05-.38h-59.68c-4.95,0-10.37.13-17.05.38-2.64.1-5.67.27-8.16.77-4.97,1-8.71,2.82-11.44,5.56l-.04.05-.04.04c-2.74,2.73-4.56,6.46-5.56,11.44-.5,2.48-.67,5.51-.77,8.15-.25,6.49-.37,11.77-.37,16.59,0,4.8.12,10.06.37,16.56.1,2.63.27,5.66.77,8.15,1,4.98,2.82,8.71,5.56,11.44l.04.04.04.04c2.73,2.74,6.47,4.57,11.44,5.56,2.48.5,5.52.66,8.16.77,6.68.26,12.09.37,17.05.37h42.47c2.79,0,5.05,2.27,5.05,5.06v9.13c0,.91.94,1.52,1.78,1.16l22.89-10.11,17.7-7.82c.58-.23,1.12-.47,1.66-.73l.33-.15v-.03c1.71-.88,3.2-1.94,4.45-3.21l.04-.04.04-.04c2.74-2.73,4.56-6.46,5.56-11.44.5-2.48.67-5.52.77-8.15.25-6.5.36-11.77.37-16.6,0-4.79-.12-10.06-.37-16.55-.1-2.64-.27-5.66-.77-8.15Zm-94.46,37.89c-.27,2.57-2.45,4.52-5.03,4.52h-6.22c-2.58,0-4.76-1.95-5.03-4.51-.93-8.78-.93-17.55,0-26.34.27-2.57,2.45-4.52,5.03-4.52h6.22c2.58,0,4.76,1.95,5.03,4.52.93,8.77.93,17.55,0,26.34Zm60.97,0c-.27,2.57-2.45,4.52-5.03,4.52h-6.22c-2.58,0-4.76-1.95-5.03-4.51-.94-8.78-.94-17.55,0-26.34.27-2.57,2.45-4.52,5.03-4.52h6.22c2.58,0,4.76,1.95,5.03,4.52.94,8.77.94,17.55,0,26.34Z"/>
  <path class="cls-1" d="m512,173.36c.02-17.09-.44-34.17-1.09-51.23-.4-10.31-1.08-20.75-3.1-30.84-4.73-23.59-14.47-42.92-29.36-57.72-14.8-14.89-34.14-24.64-57.73-29.38-10.09-2.02-20.52-2.7-30.83-3.09C372.83.44,355.73-.02,338.66,0h-165.3c-17.08-.02-34.17.44-51.23,1.09-10.31.39-20.75,1.08-30.84,3.09-23.59,4.73-42.93,14.48-57.73,29.38-14.89,14.8-24.63,34.13-29.37,57.72-2.02,10.09-2.7,20.53-3.09,30.84C.44,139.19-.02,156.27,0,173.36v165.29c-.02,14.59.43,29.2.93,43.8.05-1.45.1-2.89.16-4.33.39-10.31,1.07-20.75,3.09-30.84,4.73-23.59,14.48-42.92,29.37-57.72,14.8-14.89,34.13-24.64,57.73-29.38,10.09-2.02,20.52-2.7,30.84-3.09,17.06-.66,34.16-1.11,51.23-1.09h83.52c64,0,79.12,46.36,79.12,64h-162.65c-17.08-.02-34.17.44-51.23,1.09-10.31.39-20.75,1.08-30.84,3.09-23.59,4.73-42.93,14.48-57.73,29.38-14.89,14.8-24.63,34.13-29.37,57.72-.27,1.39-.52,2.78-.74,4.17.27,1.75.4,3.53.74,5.27,4.73,23.59,14.48,42.94,29.37,57.74,14.8,14.89,34.13,24.64,57.73,29.36,10.09,2.03,20.52,2.7,30.84,3.11,17.06.64,34.16,1.11,51.23,1.08h165.3c17.08.03,34.17-.44,51.23-1.08,10.3-.41,20.74-1.08,30.83-3.11,23.59-4.72,42.94-14.47,57.73-29.36,4.41-4.38,8.22-9.28,11.73-14.45h-26.18v-64h46.3c.23-3.38.48-6.75.62-10.11.65-17.06,1.11-34.16,1.09-51.23v-18.66h-48c0-24.64-15.12-64-95.96-64,35.33.03,63.96,28.67,63.96,64v166.05c0,7.39-7.77,12.2-14.39,8.89l-13.16-6.58c-2.8-1.41-6.09-1.41-8.89,0l-13.16,6.58c-6.61,3.31-14.39-1.5-14.39-8.89v-166.05c0-35.33-28.63-63.97-63.96-64h207.96v-82.63Zm-176,290.64H96c-17.67,0-32-14.33-32-32s14.33-32,32-32h240v64Zm24.79-320.84h0c-.01,5.75-.17,11.51-.39,17.25-.14,3.66-.38,7.37-1.1,10.95-1.68,8.38-5.14,15.25-10.43,20.5-3,3.03-6.55,5.43-10.59,7.27l.04.02-54.33,24c-6.68,2.92-14.15-1.98-14.15-9.27v-10.09h-29.84c-5.91,0-11.82-.16-17.73-.39-3.66-.14-7.37-.38-10.95-1.1-8.38-1.68-15.25-5.14-20.51-10.44-5.29-5.25-8.75-12.12-10.43-20.5-.72-3.59-.96-7.3-1.1-10.95-.22-5.74-.37-11.5-.38-17.25h0c0-5.76.16-11.51.38-17.25.14-3.66.38-7.38,1.1-10.95,1.68-8.38,5.14-15.26,10.43-20.51,5.25-5.29,12.12-8.75,20.51-10.44,3.58-.72,7.29-.96,10.95-1.1,5.9-.22,11.82-.38,17.72-.38h19.27l3.68-22.09c-4.86-2.52-8.27-7.43-8.27-13.28,0-8.38,6.79-15.16,15.16-15.16s15.16,6.78,15.16,15.16c0,5.85-3.41,10.76-8.27,13.28l3.68,22.09h19.27c5.91,0,11.82.16,17.72.38,3.66.14,7.37.38,10.95,1.1,8.38,1.69,15.25,5.15,20.51,10.44,5.29,5.25,8.75,12.13,10.43,20.51.72,3.58.96,7.29,1.1,10.95.22,5.74.38,11.49.39,17.24h0Z"/>
</svg>