<?xml version="1.0" encoding="UTF-8"?>
<svg id="Layer_1" data-name="Layer 1" xmlns="http://www.w3.org/2000/svg" viewBox="0 0 128 128">
  <path d="m124.37,62.61c-.09-2.44-.25-4.91-.73-7.3-1.12-5.59-3.43-10.17-6.96-13.67-3.5-3.53-8.08-5.84-13.67-6.96-2.39-.48-4.86-.64-7.3-.73-3.94-.15-7.88-.26-11.82-.26-.11,0-.21,0-.32,0h-15.65l-1.16-13.87c4.23-1.21,7.33-5.09,7.33-9.71,0-5.58-4.52-10.11-10.11-10.11s-10.11,4.52-10.11,10.11c0,4.62,3.1,8.5,7.33,9.71l-1.16,13.87h-15.65c-.11,0-.21,0-.32,0-3.94,0-7.88.11-11.82.26-2.44.09-4.91.25-7.3.73-5.59,1.12-10.17,3.43-13.67,6.96-3.53,3.5-5.83,8.08-6.96,13.67-.48,2.39-.64,4.86-.73,7.3-.15,3.83-.25,7.66-.26,11.5h0c0,3.84.11,7.67.26,11.5.09,2.44.25,4.91.73,7.3,1.12,5.59,3.43,10.17,6.96,13.67,3.5,3.53,8.08,5.83,13.67,6.96,2.39.48,4.86.64,7.3.73,3.94.15,7.88.26,11.82.26h19.89v6.73c0,4.86,4.98,8.12,9.43,6.17l36.22-16h-.03c2.69-1.23,5.06-2.84,7.06-4.85,3.53-3.5,5.83-8.08,6.96-13.67.48-2.39.64-4.86.73-7.3.15-3.83.25-7.66.26-11.5h0c0-3.84-.11-7.67-.26-11.5Zm-75.27,20.28c-.18,1.71-1.63,3.01-3.36,3.01h-4.15c-1.72,0-3.17-1.3-3.35-3.01-.62-5.85-.62-11.7,0-17.56.18-1.71,1.63-3.01,3.36-3.01h4.15c1.72,0,3.17,1.3,3.35,3.01.62,5.85.62,11.7,0,17.56Zm40.65,0c-.18,1.71-1.63,3.01-3.36,3.01h-4.15c-1.72,0-3.17-1.3-3.35-3.01-.62-5.85-.62-11.7,0-17.56.18-1.71,1.63-3.01,3.35-3.01h4.15c1.72,0,3.17,1.3,3.35,3.01.62,5.85.62,11.7,0,17.56Z"/>
</svg>