<?xml version="1.0" encoding="UTF-8"?>
<svg id="Layer_1" data-name="Layer 1" xmlns="http://www.w3.org/2000/svg" viewBox="0 0 64 64">
  <defs>
    <style>
      .cls-1 {
        fill: #fff;
      }
    </style>
  </defs>
  <path class="cls-1" d="m47.64,31.64c1.05-1.04,1.73-2.4,2.06-4.06.14-.71.19-1.44.22-2.17.04-1.14.07-2.27.08-3.41h0c0-1.14-.03-2.28-.08-3.41-.03-.72-.08-1.46-.22-2.17-.33-1.66-1.02-3.02-2.06-4.06-1.04-1.05-2.4-1.73-4.06-2.06-.71-.14-1.44-.19-2.17-.22-1.17-.04-2.34-.08-3.51-.08-.03,0-.06,0-.09,0h-4.65l-.34-4.12c1.26-.36,2.18-1.51,2.18-2.88C35,1.34,33.66,0,32,0s-3,1.34-3,3c0,1.37.92,2.52,2.18,2.88l-.34,4.12h-4.64s-.06,0-.09,0c-1.17,0-2.34.03-3.51.08-.72.03-1.46.08-2.17.22-1.66.33-3.02,1.02-4.06,2.06-1.05,1.04-1.73,2.4-2.06,4.06-.14.71-.19,1.44-.22,2.17-.04,1.14-.07,2.28-.08,3.41h0c0,1.14.03,2.28.08,3.41.03.72.08,1.46.22,2.17.33,1.66,1.02,3.02,2.06,4.06,1.04,1.05,2.4,1.73,4.06,2.06.71.14,1.44.19,2.17.22,1.17.04,2.34.08,3.51.08h5.91v2c0,1.44,1.48,2.41,2.8,1.83l10.75-4.75h0c.8-.37,1.5-.84,2.1-1.44Zm-2.47-2.48h0c-.25.26-.54.47-.88.64h0s-.07.03-.07.03c-.1.05-.21.1-.33.14l-3.5,1.55h0l-4.53,2c-.17.07-.35-.05-.35-.23v-1.81c0-.55-.45-1-1-1h-8.41c-.98,0-2.05-.02-3.37-.07-.52-.02-1.12-.05-1.61-.15-.98-.2-1.72-.56-2.26-1.1h0s0-.02,0-.02c-.54-.54-.9-1.28-1.1-2.26-.1-.49-.13-1.09-.15-1.61-.05-1.28-.07-2.33-.07-3.28,0-.96.02-2,.07-3.28.02-.52.05-1.12.15-1.61.2-.98.56-1.72,1.1-2.26h0s0-.02,0-.02c.54-.54,1.28-.9,2.26-1.1.49-.1,1.09-.13,1.61-.15,1.32-.05,2.39-.07,3.37-.07h.09s11.63,0,11.63,0h.09c.98,0,2.05.02,3.37.07.52.02,1.12.05,1.61.15.98.2,1.72.56,2.26,1.1h0s0,.02,0,.02c.54.54.9,1.28,1.1,2.26.1.49.13,1.09.15,1.61.05,1.28.07,2.33.07,3.28,0,.96-.02,2-.07,3.28-.02.52-.05,1.12-.15,1.61-.2.98-.56,1.73-1.1,2.26h0Z"/>
  <path class="cls-1" d="m16.3,38.92c-2.23,1.44-6.2,4.23-6.2,5.8,0,1.76,5.17.53,7.15,0,.45-.12.76-.54.74-1l-.15-3.99c-.03-.78-.89-1.22-1.54-.8Z"/>
  <path class="cls-1" d="m47.7,38.92c-.65-.42-1.51.03-1.54.8l-.15,3.99c-.02.47.29.88.74,1,1.99.54,7.15,1.77,7.15,0,0-1.57-3.97-4.36-6.2-5.8Z"/>
  <path class="cls-1" d="m26.58,18.5h-1.23c-.51,0-.94.39-1,.89-.18,1.74-.18,3.48,0,5.21.05.51.49.89,1,.89h1.23c.51,0,.94-.39,1-.89.18-1.74.18-3.48,0-5.21-.05-.51-.49-.89-1-.89Z"/>
  <path class="cls-1" d="m38.65,18.5h-1.23c-.51,0-.94.39-1,.89-.18,1.74-.18,3.48,0,5.21.05.51.49.89,1,.89h1.23c.51,0,.94-.39,1-.89.18-1.74.18-3.48,0-5.21-.05-.51-.49-.89-1-.89Z"/>
  <path class="cls-1" d="m42.75,38h-1.54c-.53,0-.97.41-1,.94-.1,1.9-.3,3.85-.6,5.76-.67,4.33-2.12,11.78-5.59,14.56-2.3,1.71-4.55.12-5.85-2.07-2.89-4.9-4.03-12.41-4.38-18.26-.03-.53-.47-.94-1-.94h-1.56c-.56,0-1.01.46-1,1.01.02,2.08.18,4.12.42,6.19.79,5.91,2.61,15.97,8.95,18.38,1.71.64,3.67.53,5.33-.22,4.13-2.02,5.95-7,7.06-11.05,1.12-4.39,1.7-8.8,1.74-13.31,0-.55-.45-1-1-1Z"/>
</svg>