<?xml version="1.0" encoding="UTF-8"?>
<svg id="Layer_1" data-name="Layer 1" xmlns="http://www.w3.org/2000/svg" viewBox="0 0 512 512">
  <defs>
    <style>
      .cls-1 {
        fill: #fff;
      }
    </style>
  </defs>
  <path class="cls-1" d="m466.74,426.32c14.11-14.02,23.34-32.34,27.82-54.69,1.92-9.55,2.56-19.44,2.94-29.21.58-15.31,1.01-30.65,1.03-45.98h0v-.03c-.02-15.33-.45-30.67-1.03-45.98-.37-9.77-1.02-19.66-2.94-29.21-4.48-22.35-13.71-40.68-27.82-54.69-14.02-14.11-32.34-23.34-54.69-27.82-9.55-1.92-19.44-2.56-29.21-2.94-15.74-.6-31.51-1.03-47.26-1.03-.42,0-.85,0-1.27,0h-62.58l-4.62-55.48c16.92-4.83,29.32-20.37,29.32-38.84C296.42,18.1,278.32,0,256,0s-40.42,18.1-40.42,40.42c0,18.47,12.4,34.01,29.32,38.84l-4.62,55.48h-62.58c-.42,0-.85,0-1.27,0-15.76,0-31.52.43-47.26,1.03-9.77.37-19.66,1.02-29.21,2.94-22.35,4.48-40.67,13.71-54.69,27.82-14.11,14.01-23.34,32.34-27.82,54.69-1.92,9.55-2.56,19.44-2.94,29.21-.58,15.31-1.01,30.65-1.03,45.98h0v.03c.02,15.33.45,30.67,1.03,45.98.37,9.77,1.02,19.66,2.94,29.21,4.48,22.35,13.71,40.67,27.82,54.69,14.02,14.11,32.34,23.34,54.69,27.82,9.55,1.92,19.44,2.56,29.21,2.93,15.74.6,31.51,1.03,47.27,1.03h79.57v26.92c0,19.43,19.93,32.47,37.73,24.7l144.88-64-.1-.03c10.76-4.9,20.22-11.31,28.23-19.37Zm-33.35-33.35l-.11.11c-3.36,3.38-7.32,6.21-11.9,8.56l.02.07-.89.39c-1.41.69-2.88,1.34-4.41,1.95l-47.19,20.85h0l-61.04,26.96c-2.23.98-4.73-.65-4.73-3.08v-24.36c0-7.44-6.03-13.47-13.47-13.47h-113.26c-13.2,0-27.65-.32-45.47-1-7.03-.27-15.12-.72-21.74-2.05-13.26-2.66-23.24-7.51-30.5-14.82l-.11-.11-.11-.11c-7.31-7.26-12.16-17.24-14.82-30.5-1.33-6.62-1.78-14.71-2.05-21.74-.66-17.31-.98-31.37-1-44.14.02-12.88.34-26.95,1-44.25.27-7.03.72-15.12,2.05-21.74,2.66-13.26,7.51-23.24,14.82-30.5l.11-.11.11-.11c7.26-7.31,17.24-12.16,30.5-14.82,6.62-1.33,14.7-1.78,21.74-2.05,17.8-.68,32.25-1,45.46-1h1.27s156.68,0,156.68,0h1.19c13.22,0,27.66.32,45.46,1,7.04.27,15.12.72,21.74,2.05,13.26,2.66,23.24,7.51,30.5,14.82l.11.11.11.11c7.31,7.26,12.16,17.24,14.82,30.5,1.33,6.62,1.78,14.71,2.05,21.74.66,17.31.98,31.37,1,44.14-.02,12.88-.34,26.94-1,44.25-.27,7.03-.72,15.12-2.05,21.74-2.66,13.26-7.51,23.24-14.82,30.5l-.11.11Z"/>
  <path class="cls-1" d="m182.99,249.26h-16.58c-6.89,0-12.69,5.19-13.42,12.04-2.49,23.43-2.49,46.84,0,70.24.73,6.85,6.53,12.04,13.42,12.04h16.58c6.89,0,12.69-5.19,13.42-12.04,2.49-23.43,2.49-46.84,0-70.24-.73-6.85-6.53-12.04-13.42-12.04Z"/>
  <path class="cls-1" d="m345.59,249.26h-16.58c-6.89,0-12.69,5.19-13.42,12.04-2.49,23.43-2.49,46.84,0,70.24.73,6.85,6.53,12.04,13.42,12.04h16.58c6.89,0,12.69-5.19,13.42-12.04,2.49-23.43,2.49-46.84,0-70.24-.73-6.85-6.53-12.04-13.42-12.04Z"/>
</svg>