<?xml version="1.0" encoding="UTF-8"?>
<svg id="Layer_1" data-name="Layer 1" xmlns="http://www.w3.org/2000/svg" viewBox="0 0 32 32">
  <defs>
    <style>
      .cls-1 {
        fill: #fff;
      }
    </style>
  </defs>
  <path class="cls-1" d="m29.17,26.64c.88-.88,1.46-2.02,1.74-3.42.12-.6.16-1.22.18-1.83.04-.96.06-1.92.06-2.87h0c0-.96-.03-1.92-.06-2.88-.02-.61-.06-1.23-.18-1.83-.28-1.4-.86-2.54-1.74-3.42-.88-.88-2.02-1.46-3.42-1.74-.6-.12-1.22-.16-1.83-.18-.98-.04-1.97-.06-2.95-.06-.03,0-.05,0-.08,0h-3.91l-.29-3.47c1.06-.3,1.83-1.27,1.83-2.43,0-1.4-1.13-2.53-2.53-2.53s-2.53,1.13-2.53,2.53c0,1.15.78,2.13,1.83,2.43l-.29,3.47h-3.91s-.05,0-.08,0c-.98,0-1.97.03-2.95.06-.61.02-1.23.06-1.83.18-1.4.28-2.54.86-3.42,1.74-.88.88-1.46,2.02-1.74,3.42-.12.6-.16,1.22-.18,1.83-.04.96-.06,1.92-.06,2.87h0c0,.96.03,1.92.06,2.88.02.61.06,1.23.18,1.83.28,1.4.86,2.54,1.74,3.42.88.88,2.02,1.46,3.42,1.74.6.12,1.22.16,1.83.18.98.04,1.97.06,2.95.06h4.97v1.68c0,1.21,1.25,2.03,2.36,1.54l9.05-4h0c.67-.31,1.26-.71,1.76-1.21Zm-2.08-2.08h0c-.21.22-.46.4-.74.54h0s-.06.03-.06.03c-.09.04-.18.08-.28.12l-2.95,1.3h0l-3.81,1.69c-.14.06-.3-.04-.3-.19v-1.52c0-.47-.38-.84-.84-.84h-7.08c-.83,0-1.73-.02-2.84-.06-.44-.02-.94-.05-1.36-.13-.83-.17-1.45-.47-1.91-.93h0s0-.01,0-.01c-.46-.45-.76-1.08-.93-1.91-.08-.41-.11-.92-.13-1.36-.04-1.08-.06-1.96-.06-2.76,0-.81.02-1.68.06-2.77.02-.44.05-.94.13-1.36.17-.83.47-1.45.93-1.91h0s0-.01,0-.01c.45-.46,1.08-.76,1.91-.93.41-.08.92-.11,1.36-.13,1.11-.04,2.02-.06,2.84-.06h.08s9.79,0,9.79,0h.07c.83,0,1.73.02,2.84.06.44.02.95.05,1.36.13.83.17,1.45.47,1.91.93h0s0,.01,0,.01c.46.45.76,1.08.93,1.91.08.41.11.92.13,1.36.04,1.08.06,1.96.06,2.76,0,.81-.02,1.68-.06,2.77-.02.44-.05.94-.13,1.36-.17.83-.47,1.45-.93,1.91h0Z"/>
  <path class="cls-1" d="m11.44,15.58h-1.04c-.43,0-.79.32-.84.75-.16,1.46-.16,2.93,0,4.39.05.43.41.75.84.75h1.04c.43,0,.79-.32.84-.75.16-1.46.16-2.93,0-4.39-.05-.43-.41-.75-.84-.75Z"/>
  <path class="cls-1" d="m21.6,15.58h-1.04c-.43,0-.79.32-.84.75-.16,1.46-.16,2.93,0,4.39.05.43.41.75.84.75h1.04c.43,0,.79-.32.84-.75.16-1.46.16-2.93,0-4.39-.05-.43-.41-.75-.84-.75Z"/>
</svg>