<?xml version="1.0" encoding="UTF-8"?>
<svg id="Layer_1" data-name="Layer 1" xmlns="http://www.w3.org/2000/svg" viewBox="0 0 256 256">
  <defs>
    <style>
      .cls-1 {
        fill: #fff;
      }
    </style>
  </defs>
  <path class="cls-1" d="m233.37,213.16c7.05-7.01,11.67-16.17,13.91-27.35.96-4.78,1.28-9.72,1.47-14.61.29-7.66.5-15.33.52-22.99h0c-.01-7.68-.22-15.35-.52-23-.19-4.88-.51-9.83-1.47-14.61-2.24-11.18-6.86-20.34-13.91-27.35-7.01-7.05-16.17-11.67-27.35-13.91-4.78-.96-9.72-1.28-14.61-1.47-7.87-.3-15.75-.52-23.63-.52-.21,0-.42,0-.64,0h-31.29l-2.31-27.74c8.46-2.41,14.66-10.19,14.66-19.42,0-11.16-9.05-20.21-20.21-20.21s-20.21,9.05-20.21,20.21c0,9.24,6.2,17.01,14.66,19.42l-2.31,27.74h-31.29c-.21,0-.42,0-.64,0-7.88,0-15.76.22-23.63.52-4.88.19-9.83.51-14.61,1.47-11.18,2.24-20.34,6.86-27.35,13.91-7.05,7.01-11.67,16.17-13.91,27.35-.96,4.78-1.28,9.72-1.47,14.61-.29,7.66-.5,15.33-.52,22.99h0c.01,7.68.22,15.35.52,23,.19,4.88.51,9.83,1.47,14.61,2.24,11.18,6.86,20.34,13.91,27.35,7.01,7.05,16.17,11.67,27.35,13.91,4.78.96,9.72,1.28,14.61,1.47,7.87.3,15.75.52,23.63.52h39.79v13.46c0,9.71,9.96,16.24,18.87,12.35l72.44-32h-.05c5.38-2.46,10.11-5.67,14.12-9.7Zm-16.67-16.67l-.06.06c-1.68,1.69-3.66,3.11-5.95,4.28v.03s-.43.2-.43.2c-.7.35-1.44.67-2.2.97l-23.6,10.42h0l-30.52,13.48c-1.11.49-2.36-.32-2.36-1.54v-12.18c0-3.72-3.02-6.74-6.74-6.74h-56.63c-6.6,0-13.83-.16-22.73-.5-3.52-.13-7.56-.36-10.87-1.02-6.63-1.33-11.62-3.75-15.25-7.41l-.06-.06-.06-.06c-3.66-3.63-6.08-8.62-7.41-15.25-.66-3.31-.89-7.35-1.02-10.87-.33-8.65-.49-15.68-.5-22.07,0-6.44.17-13.47.5-22.13.13-3.52.36-7.56,1.02-10.87,1.33-6.63,3.75-11.62,7.41-15.25l.06-.06.06-.06c3.63-3.66,8.62-6.08,15.25-7.41,3.31-.66,7.35-.89,10.87-1.02,8.9-.34,16.12-.5,22.73-.5h.64s78.34,0,78.34,0h.6c6.61,0,13.83.16,22.73.5,3.52.13,7.56.36,10.87,1.02,6.63,1.33,11.62,3.75,15.25,7.41l.06.06.06.06c3.66,3.63,6.08,8.62,7.41,15.25.66,3.31.89,7.35,1.02,10.87.33,8.65.49,15.68.5,22.07,0,6.44-.17,13.47-.5,22.13-.13,3.52-.36,7.56-1.02,10.87-1.33,6.63-3.75,11.62-7.41,15.25l-.06.06Z"/>
  <path class="cls-1" d="m91.5,124.63h-8.29c-3.44,0-6.35,2.6-6.71,6.02-1.25,11.72-1.25,23.42,0,35.12.36,3.42,3.27,6.02,6.71,6.02h8.29c3.44,0,6.35-2.6,6.71-6.02,1.25-11.72,1.25-23.42,0-35.12-.36-3.42-3.27-6.02-6.71-6.02Z"/>
  <path class="cls-1" d="m172.79,124.63h-8.29c-3.44,0-6.35,2.6-6.71,6.02-1.25,11.72-1.25,23.42,0,35.12.36,3.42,3.27,6.02,6.71,6.02h8.29c3.44,0,6.35-2.6,6.71-6.02,1.25-11.72,1.25-23.42,0-35.12-.36-3.42-3.27-6.02-6.71-6.02Z"/>
</svg>