<?xml version="1.0" encoding="UTF-8"?>
<svg id="Layer_1" data-name="Layer 1" xmlns="http://www.w3.org/2000/svg" viewBox="0 0 16 16">
  <defs>
    <style>
      .cls-1 {
        fill: #fff;
      }
    </style>
  </defs>
  <path class="cls-1" d="m15.55,7.83c-.01-.31-.03-.61-.09-.91-.14-.7-.43-1.27-.87-1.71-.44-.44-1.01-.73-1.71-.87-.3-.06-.61-.08-.91-.09-.49-.02-.98-.03-1.48-.03h-1.61l-.31-1.84c.4-.21.69-.62.69-1.11,0-.7-.57-1.26-1.26-1.26s-1.26.57-1.26,1.26c0,.49.28.9.69,1.11l-.31,1.84h-1.61c-.49,0-.98.01-1.48.03-.31.01-.61.03-.91.09-.7.14-1.27.43-1.71.87-.44.44-.73,1.01-.87,1.71-.06.3-.08.61-.09.91-.02.48-.03.96-.03,1.44H.42c0,.48.01.96.03,1.44.01.31.03.61.09.91.14.7.43,1.27.87,1.71.44.44,1.01.73,1.71.87.3.06.61.08.91.09.49.02.98.03,1.48.03h2.49v.84c0,.61.62,1.02,1.18.77l4.53-2h0c.34-.15.63-.35.88-.61.44-.44.73-1.01.87-1.71.06-.3.08-.61.09-.91.02-.48.03-.96.03-1.44h0c0-.48-.01-.96-.03-1.44Zm-1.47,2.82c0,.22-.02.47-.06.68-.08.41-.23.73-.46.95h0s0,0,0,0c-.1.11-.23.19-.37.27h0s-.03.01-.03.01c-.04.02-.09.04-.14.06l-1.47.65-1.91.84c-.07.03-.15-.02-.15-.1v-.76c0-.23-.19-.42-.42-.42h-3.54c-.41,0-.86,0-1.42-.03-.22,0-.47-.02-.68-.06-.41-.08-.73-.23-.95-.46h0s0,0,0,0c-.23-.23-.38-.54-.46-.95-.04-.21-.06-.46-.06-.68-.02-.54-.03-.98-.03-1.38,0-.4.01-.84.03-1.38,0-.22.02-.47.06-.68.08-.41.23-.73.46-.95h0s0,0,0,0c.23-.23.54-.38.95-.46.21-.04.46-.06.68-.06.56-.02,1.01-.03,1.42-.03h4.97c.41,0,.86.01,1.42.03.22,0,.47.02.68.06.41.08.73.23.95.46h0s0,0,0,0c.23.23.38.54.46.95.04.21.06.46.06.68.02.54.03.98.03,1.38,0,.4-.01.84-.03,1.38Z"/>
  <path class="cls-1" d="m5.72,7.79h-.52c-.22,0-.4.16-.42.38-.08.73-.08,1.46,0,2.2.02.21.2.38.42.38h.52c.22,0,.4-.16.42-.38.08-.73.08-1.46,0-2.19-.02-.21-.2-.38-.42-.38Z"/>
  <path class="cls-1" d="m10.8,7.79h-.52c-.22,0-.4.16-.42.38-.08.73-.08,1.46,0,2.2.02.21.2.38.42.38h.52c.22,0,.4-.16.42-.38.08-.73.08-1.46,0-2.19-.02-.21-.2-.38-.42-.38Z"/>
</svg>