<?xml version="1.0" encoding="UTF-8"?>
<svg id="Layer_1" data-name="Layer 1" xmlns="http://www.w3.org/2000/svg" viewBox="0 0 1024 1024">
  <defs>
    <style>
      .cls-1 {
        fill: #fff;
      }
    </style>
  </defs>
  <path class="cls-1" d="m933.48,852.64c28.22-28.03,46.68-64.68,55.64-109.38,3.83-19.11,5.13-38.89,5.87-58.42,1.17-30.62,2.01-61.3,2.06-91.96v-.06c-.05-30.66-.89-61.34-2.06-91.96-.75-19.54-2.04-39.31-5.87-58.42-8.96-44.7-27.42-81.35-55.64-109.38-28.03-28.22-64.68-46.68-109.38-55.64-19.11-3.83-38.89-5.12-58.42-5.87-31.48-1.2-63.02-2.06-94.53-2.06-.85,0-1.69,0-2.54,0h-125.17l-9.25-110.95c33.84-9.65,58.65-40.74,58.65-77.68C592.84,36.19,556.65,0,512,0s-80.84,36.19-80.84,80.84c0,36.94,24.81,68.03,58.65,77.68l-9.25,110.95h-125.17c-.85,0-1.7,0-2.54,0-31.51,0-63.05.86-94.53,2.06-19.53.75-39.31,2.04-58.42,5.87-44.7,8.96-81.35,27.42-109.38,55.64-28.22,28.03-46.68,64.68-55.64,109.38-3.83,19.11-5.12,38.88-5.87,58.42-1.17,30.63-2.02,61.31-2.06,91.96v.06c.04,30.66.89,61.34,2.06,91.96.75,19.54,2.04,39.32,5.87,58.42,8.96,44.7,27.42,81.35,55.64,109.38,28.03,28.22,64.68,46.68,109.38,55.64,19.11,3.83,38.89,5.12,58.42,5.87,31.48,1.2,63.02,2.06,94.53,2.06h159.14v53.84c0,38.85,39.86,64.94,75.46,49.39l289.76-128-.2-.06c21.53-9.8,40.45-22.62,56.46-38.74Zm-66.69-66.69l-.22.22c-6.71,6.76-14.65,12.42-23.8,17.13l.05.14-1.77.78c-2.82,1.39-5.75,2.68-8.81,3.89l-94.38,41.69h0l-122.08,53.93c-4.45,1.97-9.46-1.3-9.46-6.16v-48.72c0-14.88-12.06-26.95-26.95-26.95h-226.51c-26.41,0-55.3-.63-90.94-1.99-14.07-.54-30.23-1.44-43.47-4.1-26.53-5.32-46.48-15.01-61.01-29.64l-.22-.22-.22-.22c-14.62-14.53-24.32-34.48-29.64-61.01-2.66-13.25-3.56-29.41-4.1-43.48-1.32-34.62-1.95-62.74-1.99-88.28.04-25.77.67-53.89,1.99-88.51.54-14.07,1.44-30.23,4.1-43.48,5.32-26.53,15.01-46.48,29.64-61.01l.22-.22.22-.23c14.53-14.62,34.48-24.32,61.01-29.63,13.24-2.65,29.41-3.56,43.48-4.1,35.6-1.36,64.5-1.99,90.93-1.99h2.54s313.37,0,313.37,0h2.38c26.43,0,55.33.63,90.93,1.99,14.07.54,30.24,1.44,43.48,4.1,26.53,5.32,46.48,15.01,61.01,29.63l.22.23.22.22c14.62,14.53,24.32,34.48,29.64,61,2.65,13.25,3.56,29.41,4.1,43.48,1.32,34.61,1.95,62.74,1.99,88.28-.04,25.77-.67,53.89-1.99,88.5-.54,14.07-1.44,30.23-4.1,43.48-5.32,26.53-15.01,46.48-29.64,61.01l-.22.22Z"/>
  <path class="cls-1" d="m365.99,498.53h-33.16c-13.77,0-25.38,10.38-26.84,24.08-4.98,46.86-4.98,93.69,0,140.48,1.46,13.69,13.07,24.07,26.84,24.07h33.16c13.77,0,25.38-10.38,26.84-24.08,4.98-46.86,4.98-93.69,0-140.48-1.46-13.69-13.07-24.07-26.84-24.07Z"/>
  <path class="cls-1" d="m691.18,498.53h-33.16c-13.77,0-25.38,10.38-26.84,24.08-4.98,46.86-4.98,93.69,0,140.48,1.46,13.69,13.07,24.07,26.84,24.07h33.16c13.77,0,25.38-10.38,26.84-24.08,4.98-46.86,4.98-93.69,0-140.48-1.46-13.69-13.07-24.07-26.84-24.07Z"/>
</svg>