<?xml version="1.0" encoding="UTF-8"?>
<svg id="Layer_1" data-name="Layer 1" xmlns="http://www.w3.org/2000/svg" viewBox="0 0 32 32">
  <path d="m32,10.83c0-1.07-.03-2.14-.07-3.2-.02-.64-.07-1.3-.19-1.93-.3-1.47-.9-2.68-1.83-3.61-.92-.93-2.13-1.54-3.61-1.84-.63-.13-1.28-.17-1.93-.19C23.3.03,22.23,0,21.17,0h-10.33c-1.07,0-2.14.03-3.2.07-.64.02-1.3.07-1.93.19-1.47.3-2.68.91-3.61,1.84-.93.92-1.54,2.13-1.84,3.61-.13.63-.17,1.28-.19,1.93C.03,8.7,0,9.77,0,10.83v10.33c0,.91.03,1.83.06,2.74,0-.09,0-.18.01-.27.02-.64.07-1.3.19-1.93.3-1.47.9-2.68,1.84-3.61.92-.93,2.13-1.54,3.61-1.84.63-.13,1.28-.17,1.93-.19,1.07-.04,2.13-.07,3.2-.07h5.22c4,0,4.95,2.9,4.95,4h-10.17c-1.07,0-2.14.03-3.2.07-.64.02-1.3.07-1.93.19-1.47.3-2.68.91-3.61,1.84-.93.92-1.54,2.13-1.84,3.61-.02.09-.03.17-.05.26.02.11.02.22.05.33.3,1.47.9,2.68,1.84,3.61.92.93,2.13,1.54,3.61,1.83.63.13,1.28.17,1.93.19,1.07.04,2.13.07,3.2.07h10.33c1.07,0,2.14-.03,3.2-.07.64-.03,1.3-.07,1.93-.19,1.47-.29,2.68-.9,3.61-1.83.28-.27.51-.58.73-.9h-1.64v-4h2.89c.01-.21.03-.42.04-.63.04-1.07.07-2.13.07-3.2v-1.17h-3c0-1.54-.95-4-6-4,2.21,0,4,1.79,4,4v10.38c0,.46-.49.76-.9.56l-.82-.41c-.17-.09-.38-.09-.56,0l-.82.41c-.41.21-.9-.09-.9-.56v-10.38c0-2.21-1.79-4-4-4h13v-5.17Zm-11,18.16H6c-1.1,0-2-.9-2-2s.9-2,2-2h15v4Z"/>
</svg>