<?xml version="1.0" encoding="UTF-8"?>
<svg id="Layer_1" data-name="Layer 1" xmlns="http://www.w3.org/2000/svg" viewBox="0 0 256 256">
  <path d="m170.98,59.22c-.5-2.49-1.41-4.36-2.78-5.72l-.02-.02-.02-.02c-1.36-1.37-3.23-2.28-5.72-2.78-1.24-.25-2.76-.33-4.08-.38-3.34-.13-6.05-.19-8.52-.19h-29.84c-2.48,0-5.19.06-8.52.19-1.32.05-2.84.14-4.08.38-2.48.5-4.36,1.41-5.72,2.78l-.02.02-.02.02c-1.37,1.36-2.28,3.23-2.78,5.72-.25,1.24-.33,2.75-.38,4.07-.12,3.25-.18,5.88-.19,8.3,0,2.4.06,5.03.19,8.28.05,1.32.13,2.83.38,4.07.5,2.49,1.41,4.36,2.78,5.72l.02.02.02.02c1.36,1.37,3.23,2.29,5.72,2.78,1.24.25,2.76.33,4.08.38,3.34.13,6.05.18,8.53.18h21.24c1.39,0,2.52,1.14,2.52,2.53v4.57c0,.46.47.76.89.58l11.44-5.05,8.85-3.91c.29-.11.56-.23.83-.36l.16-.07v-.02c.85-.44,1.6-.97,2.23-1.61l.02-.02.02-.02c1.37-1.36,2.28-3.23,2.78-5.72.25-1.24.33-2.76.38-4.07.12-3.25.18-5.88.19-8.3,0-2.39-.06-5.03-.19-8.28-.05-1.32-.13-2.83-.38-4.07Zm-47.23,18.95c-.13,1.29-1.22,2.26-2.52,2.26h-3.11c-1.29,0-2.38-.97-2.52-2.25-.47-4.39-.47-8.78,0-13.17.13-1.29,1.22-2.26,2.52-2.26h3.11c1.29,0,2.38.97,2.52,2.26.47,4.38.47,8.78,0,13.17Zm30.49,0c-.14,1.29-1.23,2.26-2.52,2.26h-3.11c-1.29,0-2.38-.97-2.52-2.25-.47-4.39-.47-8.78,0-13.17.14-1.29,1.23-2.26,2.52-2.26h3.11c1.29,0,2.38.97,2.52,2.26.47,4.38.47,8.78,0,13.17Z"/>
  <path d="m256,86.68c.01-8.55-.22-17.09-.54-25.62-.2-5.16-.54-10.38-1.55-15.42-2.36-11.8-7.23-21.46-14.68-28.86-7.4-7.45-17.07-12.32-28.87-14.69-5.04-1.01-10.26-1.35-15.41-1.55C186.41.22,177.87,0,169.33,0h-82.65c-8.54,0-17.09.22-25.62.55-5.16.2-10.37.54-15.42,1.55-11.8,2.37-21.46,7.24-28.86,14.69-7.45,7.4-12.32,17.06-14.68,28.86-1.01,5.05-1.35,10.27-1.55,15.42C.22,69.59-.01,78.13,0,86.68v82.65c0,7.3.21,14.6.46,21.9.03-.73.05-1.45.08-2.16.2-5.16.54-10.38,1.55-15.42,2.37-11.8,7.24-21.46,14.68-28.86,7.4-7.45,17.07-12.32,28.86-14.69,5.04-1.01,10.26-1.35,15.42-1.55,8.53-.33,17.08-.55,25.62-.55h41.76c32,0,39.56,23.18,39.56,32h-81.32c-8.54,0-17.09.22-25.62.55-5.16.2-10.37.54-15.42,1.55-11.8,2.37-21.46,7.24-28.86,14.69-7.45,7.4-12.32,17.06-14.68,28.86-.14.7-.26,1.39-.37,2.09.14.88.2,1.77.37,2.63,2.37,11.8,7.24,21.47,14.68,28.87,7.4,7.45,17.07,12.32,28.86,14.68,5.04,1.02,10.26,1.35,15.42,1.55,8.53.32,17.08.55,25.62.54h82.65c8.54.02,17.09-.22,25.62-.54,5.15-.2,10.37-.54,15.41-1.55,11.8-2.36,21.47-7.23,28.87-14.68,2.2-2.19,4.11-4.64,5.86-7.23h-13.09v-32h23.15c.12-1.69.24-3.38.31-5.05.32-8.53.55-17.08.54-25.62v-9.33h-24c0-12.32-7.56-32-47.98-32,17.66.02,31.98,14.34,31.98,32v83.02c0,3.7-3.89,6.1-7.2,4.45l-6.58-3.29c-1.4-.7-3.04-.7-4.45,0l-6.58,3.29c-3.3,1.66-7.2-.75-7.2-4.45v-83.02c0-17.66-14.32-31.98-31.98-32h103.98v-41.32Zm-88,145.32H48c-8.84,0-16-7.16-16-16s7.16-16,16-16h120v32Zm12.39-160.42h0c0,2.88-.08,5.75-.2,8.63-.07,1.83-.19,3.68-.55,5.48-.84,4.19-2.57,7.63-5.22,10.25-1.5,1.52-3.27,2.71-5.29,3.63h.02s-27.16,12.01-27.16,12.01c-3.34,1.46-7.07-.99-7.07-4.63v-5.04h-14.92c-2.96,0-5.91-.08-8.86-.2-1.83-.07-3.69-.19-5.48-.55-4.19-.84-7.63-2.57-10.25-5.22-2.64-2.63-4.38-6.06-5.22-10.25-.36-1.79-.48-3.65-.55-5.48-.11-2.87-.19-5.75-.19-8.63h0c0-2.88.08-5.75.19-8.63.07-1.83.19-3.69.55-5.48.84-4.19,2.57-7.63,5.22-10.25,2.63-2.64,6.06-4.38,10.25-5.22,1.79-.36,3.64-.48,5.48-.55,2.95-.11,5.91-.19,8.86-.19h9.64l1.84-11.04c-2.43-1.26-4.13-3.71-4.13-6.64,0-4.19,3.39-7.58,7.58-7.58s7.58,3.39,7.58,7.58c0,2.93-1.71,5.38-4.13,6.64l1.84,11.04h9.63c2.95,0,5.91.08,8.86.19,1.83.07,3.69.19,5.48.55,4.19.84,7.62,2.57,10.25,5.22,2.64,2.63,4.38,6.06,5.22,10.25.36,1.79.48,3.64.55,5.48.11,2.87.19,5.75.2,8.62h0Z"/>
</svg>