<?xml version="1.0" encoding="UTF-8"?>
<svg id="Layer_1" data-name="Layer 1" xmlns="http://www.w3.org/2000/svg" viewBox="0 0 16 16">
  <path d="m16,5.42c0-.53-.01-1.07-.03-1.6-.01-.32-.03-.65-.1-.96-.15-.74-.45-1.34-.92-1.8-.46-.47-1.07-.77-1.8-.92-.32-.06-.64-.08-.96-.1C11.65.01,11.12,0,10.58,0h-5.17c-.53,0-1.07.01-1.6.03-.32.01-.65.03-.96.1-.74.15-1.34.45-1.8.92-.47.46-.77,1.07-.92,1.8-.06.32-.08.64-.1.96C.01,4.35,0,4.88,0,5.42v5.17c0,.46.01.91.03,1.37,0-.05,0-.09,0-.14.01-.32.03-.65.1-.96.15-.74.45-1.34.92-1.8.46-.47,1.07-.77,1.8-.92.32-.06.64-.08.96-.1.53-.02,1.07-.03,1.6-.03h2.61c2,0,2.47,1.45,2.47,2h-5.08c-.53,0-1.07.01-1.6.03-.32.01-.65.03-.96.1-.74.15-1.34.45-1.8.92-.47.46-.77,1.07-.92,1.8,0,.04-.02.09-.02.13,0,.05.01.11.02.16.15.74.45,1.34.92,1.8.46.47,1.07.77,1.8.92.32.06.64.08.96.1.53.02,1.07.03,1.6.03h5.17c.53,0,1.07-.01,1.6-.03.32-.01.65-.03.96-.1.74-.15,1.34-.45,1.8-.92.14-.14.26-.29.37-.45h-.82v-2h1.45c0-.11.02-.21.02-.32.02-.53.03-1.07.03-1.6v-.58h-1.5c0-.77-.47-2-3-2,1.1,0,2,.9,2,2v5.19c0,.23-.24.38-.45.28l-.41-.21c-.09-.04-.19-.04-.28,0l-.41.21c-.21.1-.45-.05-.45-.28v-5.19c0-1.1-.89-2-2-2h6.5v-2.58Zm-5.5,9.08H3c-.55,0-1-.45-1-1s.45-1,1-1h7.5v2Z"/>
</svg>