<?xml version="1.0" encoding="UTF-8"?>
<svg id="Layer_1" data-name="Layer 1" xmlns="http://www.w3.org/2000/svg" viewBox="0 0 64 64">
  <path d="m42.74,14.8c-.12-.62-.35-1.09-.69-1.43h0s0-.01,0-.01c-.34-.34-.81-.57-1.43-.7-.31-.06-.69-.08-1.02-.1-.83-.03-1.51-.05-2.13-.05h-7.46c-.62,0-1.3.02-2.13.05-.33.01-.71.03-1.02.1-.62.13-1.09.35-1.43.7h0s0,.01,0,.01c-.34.34-.57.81-.69,1.43-.06.31-.08.69-.1,1.02-.03.81-.05,1.47-.05,2.07,0,.6.02,1.26.05,2.07.01.33.03.71.1,1.02.12.62.35,1.09.69,1.43h0s0,0,0,0c.34.34.81.57,1.43.7.31.06.69.08,1.02.1.83.03,1.51.05,2.13.05h5.31c.35,0,.63.28.63.63v1.14c0,.11.12.19.22.14l2.86-1.26,2.21-.98c.07-.03.14-.06.21-.09l.04-.02h0c.21-.11.4-.25.56-.41h0s0,0,0,0c.34-.34.57-.81.69-1.43.06-.31.08-.69.1-1.02.03-.81.05-1.47.05-2.08,0-.6-.02-1.26-.05-2.07-.01-.33-.03-.71-.1-1.02Zm-11.81,4.74c-.03.32-.31.56-.63.56h-.78c-.32,0-.6-.24-.63-.56-.12-1.1-.12-2.19,0-3.29.03-.32.31-.56.63-.56h.78c.32,0,.6.24.63.56.12,1.1.12,2.19,0,3.29Zm7.62,0c-.03.32-.31.56-.63.56h-.78c-.32,0-.59-.24-.63-.56-.12-1.1-.12-2.19,0-3.29.03-.32.31-.56.63-.56h.78c.32,0,.59.24.63.56.12,1.1.12,2.19,0,3.29Z"/>
  <path d="m64,21.67c0-2.14-.05-4.27-.14-6.4-.05-1.29-.13-2.59-.39-3.86-.59-2.95-1.81-5.37-3.67-7.21-1.85-1.86-4.27-3.08-7.22-3.67-1.26-.25-2.57-.34-3.85-.39C46.6.05,44.47,0,42.33,0h-20.66c-2.13,0-4.27.05-6.4.14-1.29.05-2.59.13-3.85.39-2.95.59-5.37,1.81-7.22,3.67-1.86,1.85-3.08,4.27-3.67,7.21-.25,1.26-.34,2.57-.39,3.86C.05,17.4,0,19.53,0,21.67v20.66c0,1.82.05,3.65.12,5.47,0-.18.01-.36.02-.54.05-1.29.13-2.59.39-3.86.59-2.95,1.81-5.37,3.67-7.21,1.85-1.86,4.27-3.08,7.22-3.67,1.26-.25,2.57-.34,3.85-.39,2.13-.08,4.27-.14,6.4-.14h10.44c8,0,9.89,5.79,9.89,8h-20.33c-2.13,0-4.27.05-6.4.14-1.29.05-2.59.13-3.85.39-2.95.59-5.37,1.81-7.22,3.67-1.86,1.85-3.08,4.27-3.67,7.21-.03.17-.06.35-.09.52.03.22.05.44.09.66.59,2.95,1.81,5.37,3.67,7.22,1.85,1.86,4.27,3.08,7.22,3.67,1.26.25,2.57.34,3.85.39,2.13.08,4.27.14,6.4.13h20.66c2.13,0,4.27-.05,6.4-.13,1.29-.05,2.59-.13,3.85-.39,2.95-.59,5.37-1.81,7.22-3.67.55-.55,1.03-1.16,1.47-1.81h-3.27v-8h5.79c.03-.42.06-.84.08-1.26.08-2.13.14-4.27.14-6.4v-2.33h-6c0-3.08-1.89-8-12-8,4.42,0,8,3.58,8,8v20.76c0,.92-.97,1.53-1.8,1.11l-1.65-.82c-.35-.18-.76-.18-1.11,0l-1.65.82c-.83.41-1.8-.19-1.8-1.11v-20.76c0-4.42-3.58-8-8-8h26v-10.33Zm-22,36.33H12c-2.21,0-4-1.79-4-4s1.79-4,4-4h30v8Zm3.1-40.1h0c0,.72-.02,1.44-.05,2.16-.02.46-.05.92-.14,1.37-.21,1.05-.64,1.91-1.3,2.56-.37.38-.82.68-1.32.91h0s-6.79,3-6.79,3c-.83.37-1.77-.25-1.77-1.16v-1.26h-3.73c-.74,0-1.48-.02-2.22-.05-.46-.02-.92-.05-1.37-.14-1.05-.21-1.91-.64-2.56-1.3-.66-.66-1.09-1.51-1.3-2.56-.09-.45-.12-.91-.14-1.37-.03-.72-.05-1.44-.05-2.16h0c0-.72.02-1.44.05-2.16.02-.46.05-.92.14-1.37.21-1.05.64-1.91,1.3-2.56.66-.66,1.52-1.09,2.56-1.3.45-.09.91-.12,1.37-.14.74-.03,1.48-.05,2.22-.05h2.41l.46-2.76c-.61-.32-1.03-.93-1.03-1.66,0-1.05.85-1.89,1.9-1.89s1.89.85,1.89,1.89c0,.73-.43,1.34-1.03,1.66l.46,2.76h2.41c.74,0,1.48.02,2.22.05.46.02.92.05,1.37.14,1.05.21,1.91.64,2.56,1.3.66.66,1.09,1.52,1.3,2.56.09.45.12.91.14,1.37.03.72.05,1.44.05,2.16h0Z"/>
</svg>