<?xml version="1.0" encoding="UTF-8"?>
<svg id="Layer_1" data-name="Layer 1" xmlns="http://www.w3.org/2000/svg" viewBox="0 0 128 128">
  <path d="m116.68,106.58c3.53-3.5,5.84-8.08,6.96-13.67.48-2.39.64-4.86.73-7.3.15-3.83.25-7.66.26-11.5h0c0-3.84-.11-7.67-.26-11.5-.09-2.44-.25-4.91-.73-7.3-1.12-5.59-3.43-10.17-6.96-13.67-3.5-3.53-8.08-5.84-13.67-6.96-2.39-.48-4.86-.64-7.3-.73-3.93-.15-7.88-.26-11.82-.26-.11,0-.21,0-.32,0h-15.65l-1.16-13.87c4.23-1.21,7.33-5.09,7.33-9.71,0-5.58-4.52-10.11-10.11-10.11s-10.11,4.52-10.11,10.11c0,4.62,3.1,8.5,7.33,9.71l-1.16,13.87h-15.65c-.11,0-.21,0-.32,0-3.94,0-7.88.11-11.82.26-2.44.09-4.91.25-7.3.73-5.59,1.12-10.17,3.43-13.67,6.96-3.53,3.5-5.83,8.08-6.96,13.67-.48,2.39-.64,4.86-.73,7.3-.15,3.83-.25,7.66-.26,11.5h0c0,3.84.11,7.67.26,11.5.09,2.44.25,4.91.73,7.3,1.12,5.59,3.43,10.17,6.96,13.67,3.5,3.53,8.08,5.83,13.67,6.96,2.39.48,4.86.64,7.3.73,3.94.15,7.88.26,11.82.26h19.89v6.73c0,4.86,4.98,8.12,9.43,6.17l36.22-16h-.03c2.69-1.23,5.06-2.84,7.06-4.85Zm-8.34-8.34l-.03.03c-.84.84-1.83,1.55-2.97,2.14v.02s-.22.1-.22.1c-.35.17-.72.34-1.1.49l-11.8,5.21h0l-15.26,6.74c-.56.25-1.18-.16-1.18-.77v-6.09c0-1.86-1.51-3.37-3.37-3.37h-28.31c-3.3,0-6.91-.08-11.37-.25-1.76-.07-3.78-.18-5.43-.51-3.32-.66-5.81-1.88-7.63-3.7l-.03-.03-.03-.03c-1.83-1.82-3.04-4.31-3.7-7.63-.33-1.66-.45-3.68-.51-5.44-.17-4.33-.24-7.84-.25-11.04,0-3.22.08-6.74.25-11.06.07-1.76.18-3.78.51-5.43.66-3.32,1.88-5.81,3.7-7.63l.03-.03.03-.03c1.82-1.83,4.31-3.04,7.63-3.7,1.65-.33,3.68-.44,5.44-.51,4.45-.17,8.06-.25,11.37-.25h.32s39.17,0,39.17,0h.3c3.3,0,6.92.08,11.37.25,1.76.07,3.78.18,5.43.51,3.32.66,5.81,1.88,7.63,3.7l.03.03.03.03c1.83,1.82,3.04,4.31,3.7,7.63.33,1.66.45,3.68.51,5.44.17,4.33.24,7.84.25,11.04,0,3.22-.08,6.74-.25,11.06-.07,1.76-.18,3.78-.51,5.43-.66,3.32-1.88,5.81-3.7,7.63l-.03.03Z"/>
  <path d="m45.75,62.32h-4.15c-1.72,0-3.17,1.3-3.36,3.01-.62,5.86-.62,11.71,0,17.56.18,1.71,1.63,3.01,3.36,3.01h4.15c1.72,0,3.17-1.3,3.36-3.01.62-5.86.62-11.71,0-17.56-.18-1.71-1.63-3.01-3.36-3.01Z"/>
  <path d="m86.4,62.32h-4.15c-1.72,0-3.17,1.3-3.36,3.01-.62,5.86-.62,11.71,0,17.56.18,1.71,1.63,3.01,3.36,3.01h4.15c1.72,0,3.17-1.3,3.36-3.01.62-5.86.62-11.71,0-17.56-.18-1.71-1.63-3.01-3.36-3.01Z"/>
</svg>