<?xml version="1.0" encoding="UTF-8"?>
<svg id="Layer_1" data-name="Layer 1" xmlns="http://www.w3.org/2000/svg" xmlns:xlink="http://www.w3.org/1999/xlink" viewBox="0 0 1024 1024">
  <defs>
    <style>
      .cls-1 {
        fill: url(#linear-gradient);
      }

      .cls-2 {
        fill: url(#linear-gradient-2);
      }
    </style>
    <linearGradient id="linear-gradient" x1="512" y1="1024.16" x2="512" y2="19.68" gradientUnits="userSpaceOnUse">
      <stop offset="0" stop-color="#6d1ac7"/>
      <stop offset="1" stop-color="#a84fff"/>
    </linearGradient>
    <linearGradient id="linear-gradient-2" y1="1024" y2="19.52" xlink:href="#linear-gradient"/>
  </defs>
  <path class="cls-1" d="m746.23,431.69c-3.24-16.15-9.14-28.3-18.05-37.15l-.14-.13-.14-.14c-8.85-8.9-21-14.81-37.15-18.05-8.06-1.62-17.91-2.17-26.48-2.5-21.68-.83-39.27-1.21-55.37-1.21h-1.45s-190.82,0-190.82,0h-1.55c-16.09,0-33.69.38-55.37,1.21-8.57.33-18.42.88-26.48,2.5-16.15,3.24-28.3,9.14-37.15,18.05l-.14.14-.14.13c-8.9,8.85-14.81,21-18.05,37.15-1.62,8.06-2.17,17.91-2.5,26.47-.8,21.08-1.19,38.2-1.21,53.9.02,15.56.41,32.68,1.21,53.76.33,8.57.88,18.41,2.5,26.48,3.24,16.15,9.14,28.3,18.05,37.15l.14.13.14.14c8.85,8.91,21,14.81,37.15,18.05,8.06,1.62,17.91,2.17,26.47,2.49,21.7.83,39.29,1.21,55.38,1.21h137.93c9.06,0,16.41,7.35,16.41,16.41v29.67c0,2.96,3.05,4.95,5.76,3.75l74.34-32.84h0l57.47-25.39c1.86-.74,3.65-1.52,5.37-2.37l1.08-.48-.03-.08c5.57-2.87,10.4-6.31,14.49-10.43l.14-.14.14-.13c8.9-8.85,14.81-21,18.05-37.15,1.62-8.06,2.17-17.91,2.5-26.47.8-21.08,1.19-38.2,1.21-53.89-.02-15.56-.41-32.68-1.21-53.76-.33-8.57-.88-18.41-2.5-26.48Zm-306.8,123.07c-.89,8.34-7.96,14.66-16.34,14.66h-20.19c-8.39,0-15.46-6.32-16.34-14.66-3.03-28.49-3.03-57.01,0-85.54.89-8.34,7.96-14.66,16.34-14.66h20.19c8.39,0,15.46,6.32,16.34,14.66,3.03,28.49,3.03,57.01,0,85.54Zm198.02,0c-.89,8.34-7.96,14.66-16.34,14.66h-20.19c-8.39,0-15.46-6.32-16.34-14.66-3.03-28.49-3.03-57.01,0-85.54.89-8.34,7.96-14.66,16.34-14.66h20.19c8.39,0,15.46,6.32,16.34,14.66,3.03,28.49,3.03,57.01,0,85.54Z"/>
  <path class="cls-2" d="m0,0v1024h1024V0H0Zm807.37,511.99v.02c-.03,18.67-.54,37.35-1.25,56-.45,11.9-1.24,23.94-3.57,35.58-5.46,27.22-16.7,49.54-33.88,66.61-9.75,9.81-21.27,17.62-34.38,23.59l.12.04-176.44,77.94c-21.68,9.47-45.96-6.42-45.95-30.08v-32.78s-95.36,0-95.36,0h-1.55c-19.19,0-38.39-.52-57.56-1.26-11.9-.45-23.94-1.24-35.58-3.57-27.22-5.46-49.54-16.7-66.61-33.88-17.18-17.07-28.42-39.38-33.88-66.61-2.33-11.64-3.12-23.68-3.57-35.58-.71-18.65-1.23-37.33-1.25-56v-.03c.03-18.67.54-37.35,1.25-56,.45-11.9,1.24-23.94,3.57-35.57,5.46-27.22,16.7-49.54,33.88-66.61,17.07-17.18,39.38-28.43,66.61-33.88,11.64-2.33,23.68-3.12,35.58-3.58,19.17-.73,38.37-1.26,57.56-1.26.52,0,1.03,0,1.55,0h76.22l5.63-67.56c-20.61-5.88-35.71-24.81-35.71-47.3,0-27.19,22.04-49.23,49.23-49.23s49.23,22.04,49.23,49.23c0,22.5-15.11,41.43-35.71,47.3l5.63,67.56h76.22c.52,0,1.03,0,1.55,0,19.19,0,38.39.52,57.56,1.26,11.9.45,23.94,1.24,35.58,3.58,27.22,5.46,49.54,16.7,66.61,33.88,17.18,17.07,28.43,39.38,33.88,66.61,2.33,11.64,3.12,23.68,3.57,35.57.71,18.65,1.23,37.33,1.25,56v.02Z"/>
</svg>