<?xml version="1.0" encoding="UTF-8"?>
<svg id="Layer_1" data-name="Layer 1" xmlns="http://www.w3.org/2000/svg" xmlns:xlink="http://www.w3.org/1999/xlink" viewBox="0 0 256 256">
  <defs>
    <style>
      .cls-1 {
        fill: url(#linear-gradient);
      }

      .cls-2 {
        fill: url(#linear-gradient-2);
      }
    </style>
    <linearGradient id="linear-gradient" x1="128" y1="256.04" x2="128" y2="4.92" gradientUnits="userSpaceOnUse">
      <stop offset="0" stop-color="#6d1ac7"/>
      <stop offset="1" stop-color="#a84fff"/>
    </linearGradient>
    <linearGradient id="linear-gradient-2" y1="256" y2="4.88" xlink:href="#linear-gradient"/>
  </defs>
  <path class="cls-1" d="m186.56,107.92c-.81-4.04-2.29-7.08-4.51-9.29l-.03-.03-.03-.03c-2.21-2.23-5.25-3.7-9.29-4.51-2.02-.4-4.48-.54-6.62-.62-5.42-.21-9.82-.3-13.84-.3h-.36s-47.71,0-47.71,0h-.39c-4.02,0-8.42.1-13.84.3-2.14.08-4.6.22-6.62.62-4.04.81-7.08,2.29-9.29,4.51l-.03.03-.03.03c-2.23,2.21-3.7,5.25-4.51,9.29-.4,2.02-.54,4.48-.62,6.62-.2,5.27-.3,9.55-.3,13.47,0,3.89.1,8.17.3,13.44.08,2.14.22,4.6.62,6.62.81,4.04,2.29,7.08,4.51,9.29l.03.03.03.03c2.21,2.23,5.25,3.7,9.29,4.51,2.02.4,4.48.54,6.62.62,5.42.21,9.82.3,13.84.3h34.48c2.27,0,4.1,1.84,4.1,4.1v7.42c0,.74.76,1.24,1.44.94l18.58-8.21h0l14.37-6.35c.47-.18.91-.38,1.34-.59l.27-.12v-.02c1.38-.72,2.59-1.58,3.61-2.61l.03-.03.03-.03c2.23-2.21,3.7-5.25,4.51-9.29.4-2.02.54-4.48.62-6.62.2-5.27.3-9.55.3-13.47,0-3.89-.1-8.17-.3-13.44-.08-2.14-.22-4.6-.62-6.62Zm-76.7,30.77c-.22,2.08-1.99,3.67-4.09,3.67h-5.05c-2.1,0-3.86-1.58-4.09-3.66-.76-7.12-.76-14.25,0-21.39.22-2.08,1.99-3.67,4.09-3.67h5.05c2.1,0,3.86,1.58,4.09,3.66.76,7.12.76,14.25,0,21.39Zm49.5,0c-.22,2.08-1.99,3.67-4.09,3.67h-5.05c-2.1,0-3.86-1.58-4.09-3.66-.76-7.12-.76-14.25,0-21.39.22-2.08,1.99-3.67,4.09-3.67h5.05c2.1,0,3.86,1.58,4.09,3.66.76,7.12.76,14.25,0,21.39Z"/>
  <path class="cls-2" d="m0,0v256h256V0H0Zm201.84,128h0c0,4.67-.14,9.34-.31,14-.11,2.97-.31,5.99-.89,8.89-1.36,6.81-4.17,12.38-8.47,16.65-2.44,2.45-5.32,4.41-8.6,5.9h.03s-44.11,19.49-44.11,19.49c-5.42,2.37-11.49-1.6-11.49-7.52v-8.2s-23.84,0-23.84,0h-.39c-4.8,0-9.6-.13-14.39-.31-2.97-.11-5.98-.31-8.89-.89-6.81-1.36-12.38-4.17-16.65-8.47-4.3-4.27-7.11-9.85-8.47-16.65-.58-2.91-.78-5.92-.89-8.89-.18-4.66-.31-9.33-.31-14h0c0-4.68.14-9.35.31-14.01.11-2.97.31-5.98.89-8.89,1.36-6.81,4.17-12.38,8.47-16.65,4.27-4.3,9.85-7.11,16.65-8.47,2.91-.58,5.92-.78,8.89-.89,4.79-.18,9.59-.31,14.39-.31.13,0,.26,0,.39,0h19.05l1.41-16.89c-5.15-1.47-8.93-6.2-8.93-11.83,0-6.8,5.51-12.31,12.31-12.31s12.31,5.51,12.31,12.31c0,5.62-3.78,10.36-8.93,11.83l1.41,16.89h19.05c.13,0,.26,0,.39,0,4.8,0,9.6.13,14.39.31,2.97.11,5.99.31,8.89.89,6.81,1.36,12.38,4.17,16.65,8.47,4.3,4.27,7.11,9.85,8.47,16.65.58,2.91.78,5.92.89,8.89.18,4.66.31,9.33.31,14h0Z"/>
</svg>