<?xml version="1.0" encoding="UTF-8"?>
<svg id="Layer_1" data-name="Layer 1" xmlns="http://www.w3.org/2000/svg" xmlns:xlink="http://www.w3.org/1999/xlink" viewBox="0 0 128 128">
  <defs>
    <style>
      .cls-1 {
        fill: url(#linear-gradient);
      }

      .cls-2 {
        fill: url(#linear-gradient-2);
      }
    </style>
    <linearGradient id="linear-gradient" x1="64" y1="127.45" x2="64" y2="2.05" gradientUnits="userSpaceOnUse">
      <stop offset="0" stop-color="#6d1ac7"/>
      <stop offset="1" stop-color="#a84fff"/>
    </linearGradient>
    <linearGradient id="linear-gradient-2" x1="64" y1="127.45" x2="64" y2="2.05" xlink:href="#linear-gradient"/>
  </defs>
  <path class="cls-1" d="m93.28,53.96c-.4-2.02-1.14-3.54-2.26-4.64l-.02-.02-.02-.02c-1.11-1.11-2.62-1.85-4.64-2.26-1.01-.2-2.24-.27-3.31-.31-2.71-.1-4.91-.15-6.92-.15h-.18s-23.85,0-23.85,0h-.19c-2.01,0-4.21.05-6.92.15-1.07.04-2.3.11-3.31.31-2.02.4-3.54,1.14-4.64,2.26l-.02.02-.02.02c-1.11,1.11-1.85,2.62-2.26,4.64-.2,1.01-.27,2.24-.31,3.31-.1,2.63-.15,4.78-.15,6.74,0,1.94.05,4.09.15,6.72.04,1.07.11,2.3.31,3.31.4,2.02,1.14,3.54,2.26,4.64l.02.02.02.02c1.11,1.11,2.62,1.85,4.64,2.26,1.01.2,2.24.27,3.31.31,2.71.1,4.91.15,6.92.15h17.24c1.13,0,2.05.92,2.05,2.05v3.71c0,.37.38.62.72.47l9.29-4.1h0l7.18-3.17c.23-.09.46-.19.67-.3l.13-.06h0c.7-.37,1.3-.8,1.81-1.31l.02-.02.02-.02c1.11-1.11,1.85-2.62,2.26-4.64.2-1.01.27-2.24.31-3.31.1-2.63.15-4.78.15-6.74,0-1.94-.05-4.09-.15-6.72-.04-1.07-.11-2.3-.31-3.31Zm-38.35,15.38c-.11,1.04-.99,1.83-2.04,1.83h-2.52c-1.05,0-1.93-.79-2.04-1.83-.38-3.56-.38-7.13,0-10.69.11-1.04.99-1.83,2.04-1.83h2.52c1.05,0,1.93.79,2.04,1.83.38,3.56.38,7.13,0,10.69Zm24.75,0c-.11,1.04-.99,1.83-2.04,1.83h-2.52c-1.05,0-1.93-.79-2.04-1.83-.38-3.56-.38-7.13,0-10.69.11-1.04.99-1.83,2.04-1.83h2.52c1.05,0,1.93.79,2.04,1.83.38,3.56.38,7.13,0,10.69Z"/>
  <path class="cls-2" d="m64,0C28.65,0,0,28.65,0,64s28.65,64,64,64,64-28.65,64-64S99.35,0,64,0Zm36.92,64h0c0,2.34-.07,4.67-.16,7-.06,1.49-.16,2.99-.45,4.45-.68,3.4-2.09,6.19-4.24,8.33-1.22,1.23-2.66,2.2-4.3,2.95h.02s-22.06,9.75-22.06,9.75c-2.71,1.18-5.74-.8-5.74-3.76v-4.1s-11.92,0-11.92,0h-.19c-2.4,0-4.8-.07-7.2-.16-1.49-.06-2.99-.15-4.45-.45-3.4-.68-6.19-2.09-8.33-4.24-2.15-2.13-3.55-4.92-4.24-8.33-.29-1.45-.39-2.96-.45-4.45-.09-2.33-.15-4.67-.16-7h0c0-2.34.07-4.67.16-7,.06-1.49.16-2.99.45-4.45.68-3.4,2.09-6.19,4.24-8.33,2.13-2.15,4.92-3.55,8.33-4.24,1.45-.29,2.96-.39,4.45-.45,2.4-.09,4.8-.16,7.2-.16.06,0,.13,0,.19,0h9.53l.7-8.45c-2.58-.73-4.46-3.1-4.46-5.91,0-3.4,2.76-6.15,6.15-6.15s6.15,2.75,6.15,6.15c0,2.81-1.89,5.18-4.46,5.91l.7,8.45h9.53c.06,0,.13,0,.19,0,2.4,0,4.8.07,7.2.16,1.49.06,2.99.16,4.45.45,3.4.68,6.19,2.09,8.33,4.24,2.15,2.13,3.55,4.92,4.24,8.33.29,1.45.39,2.96.45,4.45.09,2.33.15,4.67.16,7h0Z"/>
</svg>