<?xml version="1.0" encoding="UTF-8"?>
<svg id="Layer_1" data-name="Layer 1" xmlns="http://www.w3.org/2000/svg" viewBox="0 0 256 256">
  <defs>
    <style>
      .cls-1 {
        fill: #fff;
      }
    </style>
  </defs>
  <path class="cls-1" d="m248.75,125.21c-.19-4.88-.51-9.83-1.47-14.61-2.24-11.18-6.86-20.34-13.91-27.35-7.01-7.05-16.17-11.67-27.35-13.91-4.78-.96-9.72-1.28-14.61-1.47-7.87-.3-15.75-.52-23.63-.52-.21,0-.42,0-.64,0h-31.29l-2.31-27.74c8.46-2.41,14.66-10.19,14.66-19.42,0-11.16-9.05-20.21-20.21-20.21s-20.21,9.05-20.21,20.21c0,9.24,6.2,17.01,14.66,19.42l-2.31,27.74h-31.29c-.21,0-.42,0-.64,0-7.88,0-15.76.22-23.63.52-4.88.19-9.83.51-14.61,1.47-11.18,2.24-20.34,6.86-27.35,13.91-7.05,7.01-11.67,16.17-13.91,27.35-.96,4.78-1.28,9.72-1.47,14.61-.29,7.66-.5,15.33-.52,22.99h0c.01,7.68.22,15.35.52,23,.19,4.88.51,9.83,1.47,14.61,2.24,11.18,6.86,20.34,13.91,27.35,7.01,7.05,16.17,11.67,27.35,13.91,4.78.96,9.72,1.28,14.61,1.47,7.87.3,15.75.52,23.63.52h39.79v13.46c0,9.71,9.96,16.24,18.87,12.35l72.44-32h-.05c5.38-2.46,10.11-5.67,14.12-9.7,7.05-7.01,11.67-16.17,13.91-27.35.96-4.78,1.28-9.72,1.47-14.61.29-7.66.5-15.33.52-22.99h0c-.01-7.68-.22-15.35-.52-23Zm-150.54,40.56c-.36,3.42-3.27,6.02-6.71,6.02h-8.29c-3.44,0-6.35-2.6-6.71-6.02-1.25-11.7-1.25-23.4,0-35.12.36-3.42,3.27-6.02,6.71-6.02h8.29c3.44,0,6.35,2.6,6.71,6.02,1.24,11.7,1.25,23.4,0,35.12Zm81.3,0c-.36,3.42-3.27,6.02-6.71,6.02h-8.29c-3.44,0-6.35-2.6-6.71-6.02-1.24-11.7-1.25-23.4,0-35.12.36-3.42,3.27-6.02,6.71-6.02h8.29c3.44,0,6.35,2.6,6.71,6.02,1.24,11.7,1.25,23.4,0,35.12Z"/>
</svg>