<?xml version="1.0" encoding="UTF-8"?>
<svg id="Layer_1" data-name="Layer 1" xmlns="http://www.w3.org/2000/svg" viewBox="0 0 64 64">
  <defs>
    <style>
      .cls-1 {
        fill: #fff;
      }
    </style>
  </defs>
  <path class="cls-1" d="m62.19,31.3c-.05-1.22-.13-2.46-.37-3.65-.56-2.79-1.71-5.08-3.48-6.84-1.75-1.76-4.04-2.92-6.84-3.48-1.19-.24-2.43-.32-3.65-.37-1.97-.07-3.94-.13-5.91-.13-.05,0-.11,0-.16,0h-7.82l-.58-6.93c2.12-.6,3.67-2.55,3.67-4.85,0-2.79-2.26-5.05-5.05-5.05s-5.05,2.26-5.05,5.05c0,2.31,1.55,4.25,3.67,4.85l-.58,6.93h-7.82c-.05,0-.11,0-.16,0-1.97,0-3.94.05-5.91.13-1.22.05-2.46.13-3.65.37-2.79.56-5.08,1.71-6.84,3.48-1.76,1.75-2.92,4.04-3.48,6.84-.24,1.19-.32,2.43-.37,3.65-.07,1.91-.13,3.83-.13,5.75h0c0,1.92.06,3.84.13,5.75.05,1.22.13,2.46.37,3.65.56,2.79,1.71,5.08,3.48,6.84,1.75,1.76,4.04,2.92,6.84,3.48,1.19.24,2.43.32,3.65.37,1.97.08,3.94.13,5.91.13h9.95v3.36c0,2.43,2.49,4.06,4.72,3.09l18.11-8h-.01c1.35-.62,2.53-1.42,3.53-2.43,1.76-1.75,2.92-4.04,3.48-6.84.24-1.19.32-2.43.37-3.65.07-1.91.13-3.83.13-5.75h0c0-1.92-.06-3.84-.13-5.75Zm-37.64,10.14c-.09.86-.82,1.5-1.68,1.5h-2.07c-.86,0-1.59-.65-1.68-1.5-.31-2.92-.31-5.85,0-8.78.09-.86.82-1.51,1.68-1.51h2.07c.86,0,1.59.65,1.68,1.5.31,2.92.31,5.85,0,8.78Zm20.32,0c-.09.86-.82,1.5-1.68,1.5h-2.07c-.86,0-1.59-.65-1.68-1.5-.31-2.92-.31-5.85,0-8.78.09-.86.82-1.51,1.68-1.51h2.07c.86,0,1.59.65,1.68,1.5.31,2.92.31,5.85,0,8.78Z"/>
</svg>