<?xml version="1.0" encoding="UTF-8"?>
<svg id="Layer_1" data-name="Layer 1" xmlns="http://www.w3.org/2000/svg" viewBox="0 0 16 16">
  <path d="m11.91,7.91c.26-.26.43-.6.52-1.01.04-.18.05-.36.05-.54.01-.28.02-.57.02-.85h0c0-.28,0-.57-.02-.85,0-.18-.02-.36-.05-.54-.08-.41-.25-.75-.52-1.01-.26-.26-.6-.43-1.01-.52-.18-.04-.36-.05-.54-.05-.29-.01-.58-.02-.88-.02,0,0-.02,0-.02,0h-1.16l-.09-1.03c.31-.09.54-.38.54-.72,0-.41-.34-.75-.75-.75s-.75.34-.75.75c0,.34.23.63.54.72l-.09,1.03h-1.16s-.02,0-.02,0c-.29,0-.58,0-.88.02-.18,0-.36.02-.54.05-.41.08-.75.25-1.01.52-.26.26-.43.6-.52,1.01-.04.18-.05.36-.05.54-.01.28-.02.57-.02.85h0c0,.28,0,.57.02.85,0,.18.02.36.05.54.08.41.25.75.52,1.01.26.26.6.43,1.01.52.18.04.36.05.54.05.29.01.58.02.88.02h1.48v.5c0,.36.37.6.7.46l2.69-1.19h0c.2-.09.38-.21.52-.36Zm-.62-.62h0c-.06.06-.14.12-.22.16h0s-.02,0-.02,0c-.03.01-.05.02-.08.04l-.88.39h0l-1.13.5s-.09-.01-.09-.06v-.45c0-.14-.11-.25-.25-.25h-2.1c-.25,0-.51,0-.84-.02-.13,0-.28-.01-.4-.04-.25-.05-.43-.14-.57-.27h0s0,0,0,0c-.14-.13-.23-.32-.27-.57-.02-.12-.03-.27-.04-.4-.01-.32-.02-.58-.02-.82,0-.24,0-.5.02-.82,0-.13.01-.28.04-.4.05-.25.14-.43.27-.57h0s0,0,0,0c.13-.14.32-.23.57-.27.12-.02.27-.03.4-.04.33-.01.6-.02.84-.02h.02s2.91,0,2.91,0h.02c.25,0,.51,0,.84.02.13,0,.28.01.4.04.25.05.43.14.57.27h0s0,0,0,0c.14.13.23.32.27.57.02.12.03.27.04.4.01.32.02.58.02.82,0,.24,0,.5-.02.82,0,.13-.01.28-.04.4-.05.25-.14.43-.27.57h0Z"/>
  <path d="m4.08,9.73c-.56.36-1.55,1.06-1.55,1.45,0,.44,1.29.13,1.79,0,.11-.03.19-.13.18-.25l-.04-1c0-.19-.22-.31-.39-.2Z"/>
  <path d="m11.92,9.73c-.16-.11-.38,0-.39.2l-.04,1c0,.12.07.22.18.25.5.13,1.79.44,1.79,0,0-.39-.99-1.09-1.55-1.45Z"/>
  <path d="m6.65,4.63h-.31c-.13,0-.24.1-.25.22-.05.43-.05.87,0,1.3.01.13.12.22.25.22h.31c.13,0,.24-.1.25-.22.05-.43.05-.87,0-1.3-.01-.13-.12-.22-.25-.22Z"/>
  <path d="m9.66,4.63h-.31c-.13,0-.24.1-.25.22-.05.43-.05.87,0,1.3.01.13.12.22.25.22h.31c.13,0,.24-.1.25-.22.05-.43.05-.87,0-1.3-.01-.13-.12-.22-.25-.22Z"/>
  <path d="m10.69,9.5h-.39c-.13,0-.24.1-.25.24-.02.48-.08.96-.15,1.44-.17,1.08-.53,2.94-1.4,3.64-.58.43-1.14.03-1.46-.52-.72-1.22-1.01-3.1-1.1-4.56,0-.13-.12-.23-.25-.23h-.39c-.14,0-.25.11-.25.25,0,.52.05,1.03.1,1.55.2,1.48.65,3.99,2.24,4.59.43.16.92.13,1.33-.05,1.03-.5,1.49-1.75,1.76-2.76.28-1.1.42-2.2.44-3.33,0-.14-.11-.25-.25-.25Z"/>
</svg>