<?xml version="1.0" encoding="UTF-8"?>
<svg id="Layer_1" data-name="Layer 1" xmlns="http://www.w3.org/2000/svg" viewBox="0 0 512 512">
  <path d="m381.13,253.13c8.38-8.32,13.86-19.2,16.52-32.47,1.14-5.67,1.52-11.55,1.74-17.35.35-9.09.6-18.2.61-27.3h0v-.02c-.01-9.1-.26-18.21-.61-27.3-.22-5.8-.61-11.67-1.74-17.34-2.66-13.27-8.14-24.15-16.52-32.47-8.32-8.38-19.2-13.86-32.47-16.52-5.67-1.14-11.54-1.52-17.34-1.74-9.35-.36-18.71-.61-28.06-.61-.25,0-.5,0-.75,0h-37.16l-2.74-32.94c10.05-2.87,17.41-12.1,17.41-23.06,0-13.26-10.75-24-24-24s-24,10.75-24,24c0,10.97,7.36,20.2,17.41,23.06l-2.74,32.94h-37.16c-.25,0-.5,0-.75,0-9.36,0-18.72.26-28.06.61-5.8.22-11.67.61-17.34,1.74-13.27,2.66-24.15,8.14-32.47,16.52-8.38,8.32-13.86,19.2-16.52,32.47-1.14,5.67-1.52,11.54-1.74,17.34-.35,9.09-.6,18.2-.61,27.3h0v.02c.01,9.1.26,18.21.61,27.3.22,5.8.61,11.67,1.74,17.35,2.66,13.27,8.14,24.15,16.52,32.47,8.32,8.38,19.2,13.86,32.47,16.52,5.67,1.14,11.55,1.52,17.34,1.74,9.35.36,18.71.61,28.06.61h47.25v15.98c0,11.53,11.83,19.28,22.4,14.66l86.02-38-.06-.02c6.39-2.91,12.01-6.72,16.76-11.5Zm-19.8-19.8l-.07.07c-1.99,2.01-4.35,3.69-7.06,5.09v.04s-.51.23-.51.23c-.84.41-1.71.8-2.62,1.16l-28.02,12.38h0l-36.24,16.01c-1.32.58-2.81-.38-2.81-1.83v-14.46c0-4.42-3.58-8-8-8h-67.25c-7.84,0-16.42-.19-27-.59-4.18-.16-8.98-.43-12.91-1.22-7.88-1.58-13.8-4.46-18.11-8.8l-.07-.07-.07-.07c-4.34-4.31-7.22-10.24-8.8-18.11-.79-3.93-1.06-8.73-1.22-12.91-.39-10.28-.58-18.63-.59-26.21.01-7.65.2-16,.59-26.28.16-4.18.43-8.98,1.22-12.91,1.58-7.88,4.46-13.8,8.8-18.11l.07-.07.07-.07c4.31-4.34,10.24-7.22,18.11-8.8,3.93-.79,8.73-1.06,12.91-1.22,10.57-.4,19.15-.59,27-.59h.75s93.03,0,93.03,0h.71c7.85,0,16.43.19,27,.59,4.18.16,8.98.43,12.91,1.22,7.88,1.58,13.8,4.46,18.11,8.8l.07.07.07.07c4.34,4.31,7.22,10.24,8.8,18.11.79,3.93,1.06,8.73,1.22,12.91.39,10.28.58,18.63.59,26.21-.01,7.65-.2,16-.59,26.28-.16,4.18-.43,8.98-1.22,12.91-1.58,7.88-4.46,13.8-8.8,18.11l-.07.07Z"/>
  <path d="m130.42,311.37c-17.83,11.53-49.57,33.84-49.57,46.42,0,14.11,41.32,4.28,57.23-.03,3.6-.98,6.05-4.3,5.9-8.03l-1.23-31.94c-.24-6.2-7.13-9.78-12.34-6.41Z"/>
  <path d="m381.58,311.37c-5.21-3.37-12.1.21-12.34,6.41l-1.23,31.94c-.14,3.73,2.3,7.05,5.9,8.03,15.91,4.31,57.23,14.14,57.23.03,0-12.58-31.74-34.89-49.57-46.42Z"/>
  <path d="m212.65,148h-9.85c-4.09,0-7.54,3.08-7.97,7.15-1.48,13.91-1.48,27.81,0,41.71.43,4.07,3.88,7.15,7.97,7.15h9.85c4.09,0,7.54-3.08,7.97-7.15,1.48-13.91,1.48-27.81,0-41.71-.43-4.07-3.88-7.15-7.97-7.15Z"/>
  <path d="m309.19,148h-9.85c-4.09,0-7.54,3.08-7.97,7.15-1.48,13.91-1.48,27.81,0,41.71.43,4.07,3.88,7.15,7.97,7.15h9.85c4.09,0,7.54-3.08,7.97-7.15,1.48-13.91,1.48-27.81,0-41.71-.43-4.07-3.88-7.15-7.97-7.15Z"/>
  <path d="m341.98,304.01h-12.32c-4.24,0-7.76,3.3-7.98,7.54-.79,15.23-2.43,30.83-4.76,46.11-5.38,34.67-16.96,94.21-44.7,116.51-18.43,13.7-36.4,1-46.77-16.6-23.15-39.17-32.27-99.25-35.04-146.05-.25-4.23-3.75-7.51-7.98-7.51h-12.44c-4.46,0-8.05,3.65-8.01,8.1.13,16.66,1.46,32.98,3.36,49.54,6.34,47.28,20.85,127.72,71.62,147.01,13.64,5.13,29.39,4.22,42.62-1.75,33.07-16.13,47.63-55.99,56.46-88.41,8.94-35.12,13.56-70.44,13.96-106.46.05-4.43-3.58-8.02-8-8.02Z"/>
</svg>