<?xml version="1.0" encoding="UTF-8"?>
<svg id="Layer_1" data-name="Layer 1" xmlns="http://www.w3.org/2000/svg" viewBox="0 0 1024 1024">
  <defs>
    <style>
      .cls-1 {
        fill: #fff;
      }
    </style>
  </defs>
  <path class="cls-1" d="m0,0v1024h1024V0H0Zm368.4,635.92c-19.38,5.25-69.7,17.22-69.7.04,0-15.32,38.65-42.49,60.37-56.53,6.35-4.1,14.74.25,15.03,7.81l1.5,38.9c.17,4.54-2.8,8.59-7.19,9.78Zm241.07,73.98c-10.76,39.48-28.49,88.03-68.77,107.67-16.12,7.27-35.29,8.38-51.91,2.14-61.83-23.48-79.51-121.46-87.23-179.04-2.32-20.16-3.93-40.04-4.09-60.33-.04-5.43,4.33-9.87,9.76-9.87h15.15c5.16,0,9.41,4,9.72,9.14,3.38,56.99,14.48,130.17,42.68,177.87,12.63,21.43,34.51,36.9,56.96,20.21,33.78-27.16,47.89-99.68,54.44-141.9,2.84-18.61,4.84-37.6,5.8-56.15.27-5.16,4.56-9.18,9.72-9.18h15.01c5.39,0,9.81,4.38,9.75,9.77-.48,43.88-6.1,86.89-17,129.66Zm-70.18-141.08c-12.87,5.62-27.29-3.81-27.29-17.86v-19.47s-56.62,0-56.62,0h-.92c-11.39,0-22.8-.31-34.18-.75-7.06-.27-14.21-.74-21.12-2.12-16.16-3.24-29.41-9.92-39.55-20.12-10.2-10.14-16.88-23.39-20.12-39.55-1.39-6.91-1.85-14.06-2.12-21.12-.42-11.07-.73-22.16-.74-33.25h0v-.02c.02-11.08.32-22.18.74-33.25.27-7.06.74-14.21,2.12-21.12,3.24-16.16,9.92-29.41,20.12-39.55,10.14-10.2,23.39-16.88,39.55-20.12,6.91-1.39,14.06-1.85,21.12-2.12,11.38-.43,22.78-.75,34.18-.75.31,0,.61,0,.92,0h45.26l3.34-40.12c-12.24-3.49-21.21-14.73-21.21-28.09,0-16.14,13.09-29.23,29.23-29.23s29.23,13.09,29.23,29.23c0,13.36-8.97,24.6-21.21,28.09l3.34,40.12h45.26c.31,0,.61,0,.92,0,11.39,0,22.8.31,34.18.75,7.06.27,14.21.74,21.12,2.12,16.16,3.24,29.41,9.92,39.55,20.12,10.2,10.13,16.88,23.39,20.12,39.55,1.39,6.91,1.85,14.06,2.12,21.12.42,11.07.73,22.17.74,33.25h0v.02c-.02,11.09-.32,22.18-.74,33.25-.27,7.06-.74,14.22-2.12,21.12-3.24,16.16-9.92,29.41-20.12,39.55-5.79,5.83-12.63,10.47-20.41,14.01l.07.02-104.77,46.28Zm116.32,67.1c-4.39-1.19-7.36-5.24-7.19-9.78l1.5-38.9c.29-7.55,8.68-11.91,15.03-7.81,21.72,14.04,60.37,41.22,60.37,56.53,0,17.18-50.32,5.21-69.7-.04Z"/>
  <path class="cls-1" d="m652.56,446.54c.48-12.52.71-22.68.72-32-.01-9.24-.24-19.41-.72-31.92-.19-5.09-.52-10.93-1.48-15.72-1.92-9.59-5.43-16.8-10.71-22.06l-.08-.08-.08-.08c-5.25-5.29-12.47-8.79-22.06-10.72-4.79-.96-10.63-1.29-15.72-1.48-12.87-.49-23.32-.72-32.88-.72h-.86s-113.3,0-113.3,0h-.92c-9.56,0-20,.23-32.88.72-5.09.19-10.94.52-15.72,1.48-9.59,1.92-16.81,5.43-22.06,10.72l-.08.08-.08.08c-5.29,5.25-8.79,12.47-10.71,22.06-.96,4.79-1.29,10.63-1.48,15.72-.48,12.52-.71,22.68-.72,32,.01,9.24.24,19.4.72,31.92.19,5.09.52,10.93,1.48,15.72,1.92,9.59,5.43,16.81,10.72,22.06l.08.08.08.08c5.25,5.29,12.47,8.79,22.06,10.72,4.79.96,10.63,1.29,15.72,1.48,12.88.49,23.33.72,32.88.72h81.9c5.38,0,9.74,4.36,9.74,9.74v17.62c0,1.76,1.81,2.94,3.42,2.23l44.14-19.5h0l34.13-15.07c1.11-.44,2.17-.91,3.19-1.41l.64-.28-.02-.05c3.31-1.7,6.18-3.75,8.6-6.19l.08-.08.08-.08c5.29-5.25,8.79-12.47,10.72-22.06.96-4.79,1.29-10.63,1.48-15.72Zm-183.65-6.57c-.53,4.95-4.73,8.71-9.7,8.71h-11.99c-4.98,0-9.18-3.75-9.7-8.7-1.8-16.92-1.8-33.85,0-50.79.53-4.95,4.73-8.71,9.7-8.71h11.99c4.98,0,9.18,3.75,9.7,8.7,1.8,16.92,1.8,33.85,0,50.79Zm117.58,0c-.53,4.95-4.73,8.71-9.7,8.71h-11.99c-4.98,0-9.18-3.75-9.7-8.7-1.8-16.92-1.8-33.85,0-50.79.53-4.95,4.73-8.71,9.7-8.71h11.99c4.98,0,9.18,3.75,9.7,8.7,1.8,16.92,1.8,33.85,0,50.79Z"/>
</svg>