<?xml version="1.0" encoding="UTF-8"?>
<svg id="Layer_1" data-name="Layer 1" xmlns="http://www.w3.org/2000/svg" viewBox="0 0 128 128">
  <defs>
    <style>
      .cls-1 {
        fill: #fff;
      }
    </style>
  </defs>
  <path class="cls-1" d="m0,0v128h128V0H0Zm46.05,79.49c-2.42.66-8.71,2.15-8.71,0,0-1.91,4.83-5.31,7.55-7.07.79-.51,1.84.03,1.88.98l.19,4.86c.02.57-.35,1.07-.9,1.22Zm30.13,9.25c-1.34,4.93-3.56,11-8.6,13.46-2.01.91-4.41,1.05-6.49.27-7.73-2.94-9.94-15.18-10.9-22.38-.29-2.52-.49-5-.51-7.54,0-.68.54-1.23,1.22-1.23h1.89c.64,0,1.18.5,1.21,1.14.42,7.12,1.81,16.27,5.33,22.23,1.58,2.68,4.31,4.61,7.12,2.53,4.22-3.39,5.99-12.46,6.81-17.74.36-2.33.6-4.7.73-7.02.03-.64.57-1.15,1.21-1.15h1.88c.67,0,1.23.55,1.22,1.22-.06,5.48-.76,10.86-2.12,16.21Zm-8.77-17.63c-1.61.7-3.41-.48-3.41-2.23v-2.43s-7.08,0-7.08,0h-.11c-1.42,0-2.85-.04-4.27-.09-.88-.03-1.78-.09-2.64-.27-2.02-.41-3.68-1.24-4.94-2.51-1.28-1.27-2.11-2.92-2.51-4.94-.17-.86-.23-1.76-.27-2.64-.05-1.38-.09-2.77-.09-4.16h0c0-1.39.04-2.77.09-4.16.03-.88.09-1.78.27-2.64.41-2.02,1.24-3.68,2.51-4.94,1.27-1.28,2.92-2.11,4.94-2.51.86-.17,1.76-.23,2.64-.27,1.42-.05,2.85-.09,4.27-.09.04,0,.08,0,.11,0h5.66l.42-5.01c-1.53-.44-2.65-1.84-2.65-3.51,0-2.02,1.64-3.65,3.65-3.65s3.65,1.64,3.65,3.65c0,1.67-1.12,3.07-2.65,3.51l.42,5.01h5.66s.08,0,.11,0c1.42,0,2.85.04,4.27.09.88.03,1.78.09,2.64.27,2.02.4,3.68,1.24,4.94,2.51,1.28,1.27,2.11,2.92,2.51,4.94.17.86.23,1.76.27,2.64.05,1.38.09,2.77.09,4.16h0c0,1.39-.04,2.77-.09,4.16-.03.88-.09,1.78-.27,2.64-.41,2.02-1.24,3.68-2.51,4.94-.72.73-1.58,1.31-2.55,1.75h0s-13.1,5.79-13.1,5.79Zm14.54,8.39c-.55-.15-.92-.65-.9-1.22l.19-4.86c.04-.94,1.09-1.49,1.88-.98,2.71,1.76,7.55,5.15,7.55,7.07,0,2.15-6.29.65-8.71,0Z"/>
  <path class="cls-1" d="m81.57,55.82c.06-1.56.09-2.84.09-4,0-1.15-.03-2.43-.09-3.99-.02-.64-.07-1.37-.19-1.97-.24-1.2-.68-2.1-1.34-2.76h-.01s-.01-.02-.01-.02c-.66-.66-1.56-1.1-2.76-1.34-.6-.12-1.33-.16-1.97-.19-1.61-.06-2.92-.09-4.11-.09h-.11s-14.16,0-14.16,0h-.11c-1.19,0-2.5.03-4.11.09-.64.02-1.37.07-1.97.19-1.2.24-2.1.68-2.76,1.34h-.01s-.01.02-.01.02c-.66.66-1.1,1.56-1.34,2.76-.12.6-.16,1.33-.19,1.96-.06,1.56-.09,2.84-.09,4,0,1.15.03,2.43.09,3.99.02.64.07,1.37.19,1.97.24,1.2.68,2.1,1.34,2.76h.01s.01.02.01.02c.66.66,1.56,1.1,2.76,1.34.6.12,1.33.16,1.96.19,1.61.06,2.92.09,4.11.09h10.24c.67,0,1.22.55,1.22,1.22v2.2c0,.22.23.37.43.28l5.52-2.44h0l4.27-1.88c.14-.05.27-.11.4-.18l.08-.04h0c.41-.22.77-.47,1.08-.78h.01s.01-.02.01-.02c.66-.66,1.1-1.56,1.34-2.76.12-.6.16-1.33.19-1.96Zm-22.96-.82c-.07.62-.59,1.09-1.21,1.09h-1.5c-.62,0-1.15-.47-1.21-1.09-.23-2.11-.23-4.23,0-6.35.07-.62.59-1.09,1.21-1.09h1.5c.62,0,1.15.47,1.21,1.09.23,2.11.23,4.23,0,6.35Zm14.7,0c-.07.62-.59,1.09-1.21,1.09h-1.5c-.62,0-1.15-.47-1.21-1.09-.23-2.11-.23-4.23,0-6.35.07-.62.59-1.09,1.21-1.09h1.5c.62,0,1.15.47,1.21,1.09.23,2.11.23,4.23,0,6.35Z"/>
</svg>