<?xml version="1.0" encoding="UTF-8"?>
<svg id="Layer_1" data-name="Layer 1" xmlns="http://www.w3.org/2000/svg" viewBox="0 0 512 512">
  <defs>
    <style>
      .cls-1 {
        fill: #fff;
      }
    </style>
  </defs>
  <path class="cls-1" d="m0,0v512h512V0H0Zm184.2,317.96c-9.69,2.62-34.85,8.61-34.85.02,0-7.66,19.33-21.24,30.18-28.27,3.17-2.05,7.37.13,7.51,3.9l.75,19.45c.09,2.27-1.4,4.3-3.59,4.89Zm120.53,36.99c-5.38,19.74-14.25,44.01-34.38,53.83-8.06,3.63-17.64,4.19-25.95,1.07-30.92-11.74-39.75-60.73-43.61-89.52-1.16-10.08-1.97-20.02-2.05-30.16-.02-2.71,2.16-4.93,4.88-4.93h7.58c2.58,0,4.71,2,4.86,4.57,1.69,28.5,7.24,65.09,21.34,88.94,6.32,10.71,17.26,18.45,28.48,10.11,16.89-13.58,23.95-49.84,27.22-70.95,1.42-9.3,2.42-18.8,2.9-28.08.13-2.58,2.28-4.59,4.86-4.59h7.5c2.7,0,4.9,2.19,4.87,4.88-.24,21.94-3.05,43.45-8.5,64.83Zm-35.09-70.54c-6.44,2.81-13.64-1.91-13.64-8.93v-9.73s-28.31,0-28.31,0h-.46c-5.7,0-11.4-.16-17.09-.37-3.53-.13-7.11-.37-10.56-1.06-8.08-1.62-14.71-4.96-19.77-10.06-5.1-5.07-8.44-11.69-10.06-19.77-.69-3.45-.93-7.03-1.06-10.56-.21-5.54-.36-11.08-.37-16.62h0c0-5.55.16-11.1.37-16.64.13-3.53.37-7.11,1.06-10.56,1.62-8.08,4.96-14.71,10.06-19.77,5.07-5.1,11.69-8.44,19.77-10.06,3.45-.69,7.03-.93,10.56-1.06,5.69-.22,11.39-.37,17.09-.37.15,0,.31,0,.46,0h22.63l1.67-20.06c-6.12-1.75-10.6-7.37-10.6-14.04,0-8.07,6.54-14.61,14.62-14.61s14.62,6.54,14.62,14.61c0,6.68-4.48,12.3-10.6,14.04l1.67,20.06h22.63c.15,0,.31,0,.46,0,5.7,0,11.4.16,17.09.37,3.53.13,7.11.37,10.56,1.06,8.08,1.62,14.71,4.96,19.77,10.06,5.1,5.07,8.44,11.69,10.06,19.77.69,3.45.93,7.03,1.06,10.56.21,5.54.36,11.08.37,16.63h0c0,5.55-.16,11.1-.37,16.64-.13,3.53-.37,7.11-1.06,10.56-1.62,8.08-4.96,14.71-10.06,19.77-2.89,2.91-6.31,5.23-10.21,7h.04s-52.38,23.15-52.38,23.15Zm58.16,33.55c-2.19-.59-3.68-2.62-3.59-4.89l.75-19.45c.15-3.78,4.34-5.96,7.51-3.9,10.86,7.02,30.18,20.61,30.18,28.27,0,8.59-25.16,2.6-34.85-.02Z"/>
  <path class="cls-1" d="m326.28,223.27c.24-6.26.35-11.34.36-16,0-4.62-.12-9.7-.36-15.96-.1-2.54-.26-5.47-.74-7.86-.96-4.8-2.71-8.4-5.36-11.03l-.04-.04-.04-.04c-2.63-2.64-6.23-4.4-11.03-5.36-2.39-.48-5.32-.64-7.86-.74-6.44-.25-11.66-.36-16.44-.36h-.43s-56.65,0-56.65,0h-.46c-4.78,0-10,.11-16.44.36-2.54.1-5.47.26-7.86.74-4.8.96-8.4,2.71-11.03,5.36l-.04.04-.04.04c-2.64,2.63-4.4,6.23-5.36,11.03-.48,2.39-.64,5.32-.74,7.86-.24,6.26-.35,11.34-.36,16,0,4.62.12,9.7.36,15.96.1,2.54.26,5.47.74,7.86.96,4.8,2.71,8.4,5.36,11.03l.04.04.04.04c2.63,2.64,6.23,4.4,11.03,5.36,2.39.48,5.32.64,7.86.74,6.44.25,11.67.36,16.44.36h40.95c2.69,0,4.87,2.18,4.87,4.87v8.81c0,.88.9,1.47,1.71,1.11l22.07-9.75h0l17.06-7.54c.55-.22,1.08-.45,1.59-.7l.32-.14v-.03c1.64-.85,3.08-1.87,4.29-3.1l.04-.04.04-.04c2.64-2.63,4.4-6.23,5.36-11.03.48-2.39.64-5.32.74-7.86Zm-91.82-3.28c-.26,2.48-2.36,4.35-4.85,4.35h-6c-2.49,0-4.59-1.88-4.85-4.35-.9-8.46-.9-16.92,0-25.4.26-2.48,2.36-4.35,4.85-4.35h6c2.49,0,4.59,1.88,4.85,4.35.9,8.46.9,16.92,0,25.4Zm58.79,0c-.26,2.48-2.36,4.35-4.85,4.35h-6c-2.49,0-4.59-1.88-4.85-4.35-.9-8.46-.9-16.92,0-25.4.26-2.48,2.36-4.35,4.85-4.35h6c2.49,0,4.59,1.88,4.85,4.35.9,8.46.9,16.92,0,25.4Z"/>
</svg>