<?xml version="1.0" encoding="UTF-8"?>
<svg id="Layer_1" data-name="Layer 1" xmlns="http://www.w3.org/2000/svg" viewBox="0 0 256 256">
  <path d="m0,0v256h256V0H0Zm92.1,158.98c-4.85,1.31-17.43,4.31-17.43.01,0-3.83,9.66-10.62,15.09-14.13,1.59-1.03,3.68.06,3.76,1.95l.37,9.73c.04,1.14-.7,2.15-1.8,2.44Zm60.27,18.49c-2.69,9.87-7.12,22.01-17.19,26.92-4.03,1.82-8.82,2.1-12.98.53-15.46-5.87-19.88-30.37-21.81-44.76-.58-5.04-.98-10.01-1.02-15.08-.01-1.36,1.08-2.47,2.44-2.47h3.79c1.29,0,2.35,1,2.43,2.29.85,14.25,3.62,32.54,10.67,44.47,3.16,5.36,8.63,9.22,14.24,5.05,8.45-6.79,11.97-24.92,13.61-35.48.71-4.65,1.21-9.4,1.45-14.04.07-1.29,1.14-2.29,2.43-2.29h3.75c1.35,0,2.45,1.09,2.44,2.44-.12,10.97-1.53,21.72-4.25,32.41Zm-17.55-35.27c-3.22,1.41-6.82-.95-6.82-4.46v-4.87s-14.16,0-14.16,0h-.23c-2.85,0-5.7-.08-8.54-.19-1.77-.07-3.55-.18-5.28-.53-4.04-.81-7.35-2.48-9.89-5.03-2.55-2.53-4.22-5.85-5.03-9.89-.35-1.73-.46-3.52-.53-5.28-.11-2.77-.18-5.54-.19-8.31h0c0-2.78.08-5.55.19-8.32.07-1.77.18-3.55.53-5.28.81-4.04,2.48-7.35,5.03-9.89,2.53-2.55,5.85-4.22,9.89-5.03,1.73-.35,3.52-.46,5.28-.53,2.85-.11,5.7-.19,8.54-.19.08,0,.15,0,.23,0h11.31l.84-10.03c-3.06-.87-5.3-3.68-5.3-7.02,0-4.04,3.27-7.31,7.31-7.31s7.31,3.27,7.31,7.31c0,3.34-2.24,6.15-5.3,7.02l.84,10.03h11.31c.08,0,.15,0,.23,0,2.85,0,5.7.08,8.54.19,1.77.07,3.55.18,5.28.53,4.04.81,7.35,2.48,9.89,5.03,2.55,2.53,4.22,5.85,5.03,9.89.35,1.73.46,3.51.53,5.28.11,2.77.18,5.54.19,8.31h0c0,2.78-.08,5.55-.19,8.32-.07,1.77-.18,3.55-.53,5.28-.81,4.04-2.48,7.35-5.03,9.89-1.45,1.46-3.16,2.62-5.1,3.5h.02s-26.19,11.58-26.19,11.58Zm29.08,16.78c-1.1-.3-1.84-1.31-1.8-2.44l.37-9.73c.07-1.89,2.17-2.98,3.76-1.95,5.43,3.51,15.09,10.3,15.09,14.13,0,4.3-12.58,1.3-17.43-.01Z"/>
  <path d="m163.14,111.63c.12-3.13.18-5.67.18-8,0-2.31-.06-4.85-.18-7.98-.05-1.27-.13-2.73-.37-3.93-.48-2.4-1.36-4.2-2.68-5.51l-.02-.02-.02-.02c-1.31-1.32-3.12-2.2-5.51-2.68-1.2-.24-2.66-.32-3.93-.37-3.22-.12-5.83-.18-8.22-.18h-.22s-28.33,0-28.33,0h-.23c-2.39,0-5,.06-8.22.18-1.27.05-2.73.13-3.93.37-2.4.48-4.2,1.36-5.51,2.68l-.02.02-.02.02c-1.32,1.31-2.2,3.12-2.68,5.51-.24,1.2-.32,2.66-.37,3.93-.12,3.13-.18,5.67-.18,8,0,2.31.06,4.85.18,7.98.05,1.27.13,2.73.37,3.93.48,2.4,1.36,4.2,2.68,5.51l.02.02.02.02c1.31,1.32,3.12,2.2,5.51,2.68,1.2.24,2.66.32,3.93.37,3.22.12,5.83.18,8.22.18h20.48c1.35,0,2.44,1.09,2.44,2.44v4.4c0,.44.45.73.86.56l11.03-4.87h0l8.53-3.77c.28-.11.54-.23.8-.35l.16-.07h0c.83-.44,1.54-.95,2.15-1.56l.02-.02.02-.02c1.32-1.31,2.2-3.12,2.68-5.51.24-1.2.32-2.66.37-3.93Zm-45.91-1.64c-.13,1.24-1.18,2.18-2.43,2.18h-3c-1.24,0-2.29-.94-2.43-2.18-.45-4.23-.45-8.46,0-12.7.13-1.24,1.18-2.18,2.43-2.18h3c1.24,0,2.29.94,2.43,2.18.45,4.23.45,8.46,0,12.7Zm29.39,0c-.13,1.24-1.18,2.18-2.43,2.18h-3c-1.24,0-2.29-.94-2.43-2.18-.45-4.23-.45-8.46,0-12.7.13-1.24,1.18-2.18,2.43-2.18h3c1.24,0,2.29.94,2.43,2.18.45,4.23.45,8.46,0,12.7Z"/>
</svg>