<?xml version="1.0" encoding="UTF-8"?>
<svg id="Layer_1" data-name="Layer 1" xmlns="http://www.w3.org/2000/svg" viewBox="0 0 512 512">
  <path d="m373.11,215.85c-1.62-8.08-4.57-14.15-9.02-18.57l-.07-.07-.07-.07c-4.42-4.45-10.5-7.4-18.57-9.02-4.03-.81-8.95-1.08-13.24-1.25-10.84-.41-19.64-.61-27.69-.61h-.73s-95.41,0-95.41,0h-.77c-8.05,0-16.84.19-27.68.61-4.29.16-9.21.44-13.24,1.25-8.08,1.62-14.15,4.57-18.58,9.02l-.07.07-.07.07c-4.45,4.42-7.4,10.5-9.02,18.57-.81,4.03-1.08,8.95-1.25,13.24-.4,10.54-.59,19.1-.61,26.95.01,7.78.2,16.34.61,26.88.16,4.28.44,9.21,1.25,13.24,1.62,8.08,4.57,14.15,9.02,18.57l.07.07.07.07c4.42,4.45,10.5,7.4,18.58,9.02,4.03.81,8.95,1.08,13.24,1.25,10.85.41,19.65.61,27.69.61h68.97c4.53,0,8.2,3.67,8.2,8.2v14.83c0,1.48,1.52,2.48,2.88,1.88l37.17-16.42h0l28.74-12.69c.93-.37,1.82-.76,2.68-1.18l.54-.24-.02-.04c2.78-1.43,5.2-3.16,7.24-5.22l.07-.07.07-.07c4.45-4.42,7.4-10.5,9.02-18.58.81-4.03,1.08-8.95,1.25-13.24.4-10.54.59-19.1.61-26.95-.01-7.78-.2-16.34-.61-26.88-.16-4.28-.44-9.21-1.25-13.24Zm-153.4,61.54c-.44,4.17-3.98,7.33-8.17,7.33h-10.1c-4.19,0-7.73-3.16-8.17-7.33-1.52-14.25-1.52-28.5,0-42.77.44-4.17,3.98-7.33,8.17-7.33h10.1c4.19,0,7.73,3.16,8.17,7.33,1.52,14.25,1.52,28.5,0,42.77Zm99.01,0c-.44,4.17-3.98,7.33-8.17,7.33h-10.1c-4.19,0-7.73-3.16-8.17-7.33-1.52-14.25-1.52-28.5,0-42.77.44-4.17,3.98-7.33,8.17-7.33h10.1c4.19,0,7.73,3.16,8.17,7.33,1.52,14.25,1.52,28.5,0,42.77Z"/>
  <path d="m0,0v512h512V0H0Zm403.68,256h0c-.01,9.34-.27,18.68-.63,28.01-.23,5.95-.62,11.97-1.79,17.79-2.73,13.61-8.35,24.77-16.94,33.3-4.88,4.91-10.64,8.81-17.19,11.8l.06.02-88.22,38.97c-10.84,4.73-22.98-3.21-22.98-15.04v-16.39s-47.68,0-47.68,0h-.77c-9.59,0-19.2-.26-28.78-.63-5.95-.23-11.97-.62-17.79-1.79-13.61-2.73-24.77-8.35-33.3-16.94-8.59-8.54-14.21-19.69-16.94-33.3-1.17-5.82-1.56-11.84-1.79-17.79-.36-9.32-.61-18.66-.63-28h0v-.02c.01-9.33.27-18.67.63-28,.23-5.95.62-11.97,1.79-17.79,2.73-13.61,8.35-24.77,16.94-33.3,8.53-8.59,19.69-14.21,33.3-16.94,5.82-1.17,11.84-1.56,17.79-1.79,9.59-.37,19.19-.63,28.78-.63.26,0,.52,0,.77,0h38.11l2.82-33.78c-10.3-2.94-17.86-12.4-17.86-23.65,0-13.59,11.02-24.61,24.61-24.61s24.61,11.02,24.61,24.61c0,11.25-7.55,20.71-17.86,23.65l2.82,33.78h38.11c.26,0,.52,0,.77,0,9.59,0,19.2.26,28.78.63,5.95.23,11.97.62,17.79,1.79,13.61,2.73,24.77,8.35,33.3,16.94,8.59,8.53,14.21,19.69,16.94,33.3,1.17,5.82,1.56,11.84,1.79,17.79.36,9.33.61,18.67.63,28h0Z"/>
</svg>