<?xml version="1.0" encoding="UTF-8"?>
<svg id="Layer_1" data-name="Layer 1" xmlns="http://www.w3.org/2000/svg" xmlns:xlink="http://www.w3.org/1999/xlink" viewBox="0 0 256 256">
  <defs>
    <style>
      .cls-1 {
        fill: url(#linear-gradient);
      }

      .cls-2 {
        fill: url(#linear-gradient-3);
      }

      .cls-3 {
        fill: url(#linear-gradient-4);
      }

      .cls-4 {
        fill: url(#linear-gradient-2);
      }

      .cls-5 {
        fill: url(#linear-gradient-6);
      }

      .cls-6 {
        fill: url(#linear-gradient-5);
      }
    </style>
    <linearGradient id="linear-gradient" x1="128" y1="256.78" x2="128" y2="5.82" gradientUnits="userSpaceOnUse">
      <stop offset="0" stop-color="#6d1ac7"/>
      <stop offset="1" stop-color="#a84fff"/>
    </linearGradient>
    <linearGradient id="linear-gradient-2" x1="56.21" y1="256.78" x2="56.21" y2="5.82" xlink:href="#linear-gradient"/>
    <linearGradient id="linear-gradient-3" x1="199.79" y1="256.78" x2="199.79" y2="5.82" xlink:href="#linear-gradient"/>
    <linearGradient id="linear-gradient-4" x1="103.86" y1="256.78" x2="103.86" y2="5.82" xlink:href="#linear-gradient"/>
    <linearGradient id="linear-gradient-5" x1="152.14" y1="256.78" x2="152.14" y2="5.82" xlink:href="#linear-gradient"/>
    <linearGradient id="linear-gradient-6" x1="127.99" y1="256.78" x2="127.99" y2="5.82" xlink:href="#linear-gradient"/>
  </defs>
  <path class="cls-1" d="m190.57,126.57c4.19-4.16,6.93-9.6,8.26-16.24.57-2.84.76-5.77.87-8.67.17-4.55.3-9.1.31-13.65h0c0-4.56-.13-9.11-.31-13.66-.11-2.9-.3-5.84-.87-8.67-1.33-6.64-4.07-12.08-8.26-16.24-4.16-4.19-9.6-6.93-16.24-8.26-2.84-.57-5.77-.76-8.67-.87-4.67-.18-9.35-.31-14.03-.31-.13,0-.25,0-.38,0h-18.58l-1.37-16.47c5.02-1.43,8.71-6.05,8.71-11.53,0-6.63-5.37-12-12-12s-12,5.37-12,12c0,5.48,3.68,10.1,8.71,11.53l-1.37,16.47h-18.58c-.13,0-.25,0-.38,0-4.68,0-9.36.13-14.03.31-2.9.11-5.84.3-8.67.87-6.64,1.33-12.08,4.07-16.24,8.26-4.19,4.16-6.93,9.6-8.26,16.24-.57,2.84-.76,5.77-.87,8.67-.17,4.55-.3,9.1-.31,13.65h0c0,4.56.13,9.11.31,13.66.11,2.9.3,5.84.87,8.67,1.33,6.64,4.07,12.08,8.26,16.24,4.16,4.19,9.6,6.93,16.24,8.26,2.84.57,5.77.76,8.67.87,4.67.18,9.35.31,14.03.31h23.62v7.99c0,5.77,5.92,9.64,11.2,7.33l43.01-19h-.03c3.2-1.46,6-3.37,8.38-5.76Zm-9.9-9.9l-.03.03c-1,1-2.17,1.84-3.53,2.54v.02s-.26.12-.26.12c-.42.21-.85.4-1.31.58l-14.01,6.19h0l-18.12,8.01c-.66.29-1.4-.19-1.4-.92v-7.23c0-2.21-1.79-4-4-4h-33.62c-3.92,0-8.21-.09-13.5-.3-2.09-.08-4.49-.21-6.45-.61-3.94-.79-6.9-2.23-9.06-4.4l-.03-.03-.03-.03c-2.17-2.16-3.61-5.12-4.4-9.06-.39-1.97-.53-4.37-.61-6.45-.2-5.14-.29-9.31-.3-13.1,0-3.82.1-8,.3-13.14.08-2.09.21-4.49.61-6.45.79-3.94,2.23-6.9,4.4-9.06l.03-.03.03-.03c2.16-2.17,5.12-3.61,9.06-4.4,1.96-.39,4.37-.53,6.45-.61,5.29-.2,9.57-.3,13.5-.3h.38s46.52,0,46.52,0h.35c3.92,0,8.21.09,13.5.3,2.09.08,4.49.21,6.45.61,3.94.79,6.9,2.23,9.06,4.4l.03.03.03.03c2.17,2.16,3.61,5.12,4.4,9.06.39,1.97.53,4.37.61,6.45.2,5.14.29,9.31.3,13.1,0,3.82-.1,8-.3,13.14-.08,2.09-.21,4.49-.61,6.45-.79,3.94-2.23,6.9-4.4,9.06l-.03.03Z"/>
  <path class="cls-4" d="m65.21,155.68c-8.92,5.77-24.78,16.92-24.78,23.21,0,7.05,20.66,2.14,28.62-.02,1.8-.49,3.02-2.15,2.95-4.01l-.61-15.97c-.12-3.1-3.56-4.89-6.17-3.21Z"/>
  <path class="cls-2" d="m190.79,155.68c-2.61-1.69-6.05.1-6.17,3.21l-.61,15.97c-.07,1.86,1.15,3.53,2.95,4.01,7.96,2.15,28.62,7.07,28.62.02,0-6.29-15.87-17.44-24.78-23.21Z"/>
  <path class="cls-3" d="m106.33,74h-4.92c-2.04,0-3.77,1.54-3.98,3.57-.74,6.96-.74,13.91,0,20.85.22,2.03,1.94,3.57,3.98,3.57h4.92c2.04,0,3.77-1.54,3.98-3.57.74-6.96.74-13.91,0-20.85-.22-2.03-1.94-3.57-3.98-3.57Z"/>
  <path class="cls-6" d="m154.6,74h-4.92c-2.04,0-3.77,1.54-3.98,3.57-.74,6.96-.74,13.91,0,20.85.22,2.03,1.94,3.57,3.98,3.57h4.92c2.04,0,3.77-1.54,3.98-3.57.74-6.96.74-13.91,0-20.85-.22-2.03-1.94-3.57-3.98-3.57Z"/>
  <path class="cls-5" d="m170.99,152h-6.16c-2.12,0-3.88,1.65-3.99,3.77-.4,7.61-1.22,15.41-2.38,23.05-2.69,17.33-8.48,47.11-22.35,58.26-9.22,6.85-18.2.5-23.39-8.3-11.58-19.58-16.13-49.63-17.52-73.03-.13-2.11-1.87-3.75-3.99-3.75h-6.22c-2.23,0-4.02,1.82-4.01,4.05.07,8.33.73,16.49,1.68,24.77,3.17,23.64,10.43,63.86,35.81,73.5,6.82,2.57,14.69,2.11,21.31-.88,16.53-8.06,23.81-28,28.23-44.2,4.47-17.56,6.78-35.22,6.98-53.23.02-2.21-1.79-4.01-4-4.01Z"/>
</svg>