<?xml version="1.0" encoding="UTF-8"?>
<svg id="Layer_1" data-name="Layer 1" xmlns="http://www.w3.org/2000/svg" xmlns:xlink="http://www.w3.org/1999/xlink" viewBox="0 0 1024 1024">
  <defs>
    <style>
      .cls-1 {
        fill: url(#linear-gradient);
      }

      .cls-2 {
        fill: url(#linear-gradient-3);
      }

      .cls-3 {
        fill: url(#linear-gradient-4);
      }

      .cls-4 {
        fill: url(#linear-gradient-2);
      }

      .cls-5 {
        fill: url(#linear-gradient-6);
      }

      .cls-6 {
        fill: url(#linear-gradient-5);
      }
    </style>
    <linearGradient id="linear-gradient" x1="512" y1="1027.11" x2="512" y2="23.28" gradientUnits="userSpaceOnUse">
      <stop offset="0" stop-color="#6d1ac7"/>
      <stop offset="1" stop-color="#a84fff"/>
    </linearGradient>
    <linearGradient id="linear-gradient-2" x1="224.85" y1="1027.11" x2="224.85" y2="23.28" xlink:href="#linear-gradient"/>
    <linearGradient id="linear-gradient-3" x1="799.15" y1="1027.11" x2="799.15" y2="23.28" xlink:href="#linear-gradient"/>
    <linearGradient id="linear-gradient-4" x1="415.46" y1="1027.11" x2="415.46" y2="23.28" xlink:href="#linear-gradient"/>
    <linearGradient id="linear-gradient-5" x1="608.54" y1="1027.11" x2="608.54" y2="23.28" xlink:href="#linear-gradient"/>
    <linearGradient id="linear-gradient-6" x1="511.95" y1="1027.11" x2="511.95" y2="23.28" xlink:href="#linear-gradient"/>
  </defs>
  <path class="cls-1" d="m762.26,506.27c16.76-16.64,27.72-38.4,33.04-64.95,2.27-11.35,3.04-23.09,3.49-34.69.69-18.18,1.2-36.4,1.22-54.6v-.03c-.03-18.2-.53-36.42-1.22-54.6-.44-11.6-1.21-23.34-3.49-34.69-5.32-26.54-16.28-48.3-33.04-64.95-16.64-16.75-38.4-27.72-64.95-33.04-11.35-2.28-23.09-3.04-34.69-3.49-18.69-.71-37.42-1.22-56.13-1.22-.5,0-1.01,0-1.51,0h-74.32l-5.49-65.88c20.1-5.73,34.82-24.19,34.82-46.13C560,21.49,538.51,0,512,0s-48,21.49-48,48c0,21.94,14.73,40.39,34.82,46.13l-5.49,65.88h-74.32c-.5,0-1.01,0-1.51,0-18.71,0-37.43.51-56.13,1.22-11.6.44-23.34,1.21-34.69,3.49-26.54,5.32-48.3,16.28-64.95,33.04-16.76,16.64-27.72,38.4-33.04,64.95-2.27,11.35-3.04,23.09-3.49,34.69-.69,18.19-1.2,36.4-1.22,54.6v.03c.03,18.2.53,36.42,1.22,54.6.44,11.6,1.21,23.34,3.49,34.69,5.32,26.54,16.28,48.3,33.04,64.95,16.64,16.75,38.4,27.72,64.95,33.04,11.35,2.28,23.09,3.04,34.69,3.48,18.69.71,37.42,1.22,56.13,1.22h94.49v31.97c0,23.07,23.67,38.56,44.81,29.33l172.05-76-.12-.04c12.78-5.82,24.02-13.43,33.52-23Zm-39.6-39.6l-.13.13c-3.99,4.01-8.7,7.38-14.13,10.17l.03.08-1.05.46c-1.67.82-3.42,1.59-5.23,2.31l-56.04,24.75h0l-72.49,32.02c-2.64,1.17-5.62-.77-5.62-3.66v-28.93c0-8.84-7.16-16-16-16h-134.5c-15.68,0-32.84-.38-54-1.18-8.35-.32-17.95-.86-25.81-2.43-15.75-3.16-27.6-8.91-36.22-17.6l-.13-.13-.13-.13c-8.68-8.63-14.44-20.48-17.6-36.22-1.58-7.87-2.12-17.46-2.43-25.82-.78-20.55-1.16-37.25-1.18-52.42.02-15.3.4-32,1.18-52.55.32-8.35.86-17.95,2.43-25.82,3.16-15.75,8.91-27.6,17.6-36.22l.13-.13.13-.13c8.63-8.68,20.47-14.44,36.22-17.6,7.86-1.58,17.46-2.11,25.82-2.43,21.14-.81,38.3-1.18,53.99-1.18h1.51s186.07,0,186.07,0h1.42c15.69,0,32.85.38,53.99,1.18,8.36.32,17.96.86,25.82,2.43,15.75,3.16,27.6,8.91,36.22,17.6l.13.13.13.13c8.68,8.63,14.44,20.47,17.6,36.22,1.58,7.87,2.11,17.47,2.43,25.82.78,20.55,1.16,37.25,1.18,52.42-.02,15.3-.4,32-1.18,52.55-.32,8.35-.86,17.95-2.43,25.82-3.16,15.75-8.91,27.6-17.6,36.23l-.13.13Z"/>
  <path class="cls-4" d="m260.84,622.73c-35.66,23.06-99.14,67.68-99.14,92.84,0,28.21,82.64,8.55,114.47-.07,7.2-1.95,12.09-8.6,11.81-16.06l-2.46-63.89c-.48-12.4-14.26-19.56-24.68-12.82Z"/>
  <path class="cls-2" d="m763.16,622.73c-10.42-6.74-24.2.42-24.68,12.82l-2.46,63.89c-.29,7.46,4.6,14.11,11.81,16.06,31.83,8.62,114.47,28.28,114.47.07,0-25.15-63.47-69.77-99.14-92.84Z"/>
  <path class="cls-3" d="m425.3,296.01h-19.69c-8.18,0-15.07,6.17-15.94,14.3-2.96,27.82-2.96,55.63,0,83.41.87,8.13,7.76,14.29,15.94,14.29h19.69c8.18,0,15.07-6.17,15.94-14.3,2.96-27.82,2.96-55.63,0-83.41-.87-8.13-7.76-14.29-15.94-14.29Z"/>
  <path class="cls-6" d="m618.39,296.01h-19.69c-8.18,0-15.07,6.17-15.94,14.3-2.96,27.82-2.96,55.63,0,83.41.87,8.13,7.76,14.29,15.94,14.29h19.69c8.18,0,15.07-6.17,15.94-14.3,2.96-27.82,2.96-55.63,0-83.41-.87-8.13-7.76-14.29-15.94-14.29Z"/>
  <path class="cls-5" d="m683.96,608.02h-24.64c-8.48,0-15.52,6.61-15.96,15.07-1.58,30.46-4.86,61.65-9.53,92.21-10.76,69.33-33.93,188.43-89.41,233.03-36.87,27.4-72.8,1.99-93.55-33.2-46.3-78.33-64.53-198.51-70.09-292.1-.5-8.45-7.49-15.02-15.96-15.02h-24.88c-8.91,0-16.09,7.29-16.02,16.2.26,33.32,2.91,65.96,6.72,99.07,12.67,94.55,41.7,255.45,143.24,294.02,27.29,10.26,58.78,8.43,85.24-3.51,66.14-32.26,95.26-111.98,112.93-176.81,17.89-70.23,27.12-140.87,27.91-212.93.1-8.85-7.15-16.04-16.01-16.04Z"/>
</svg>