<?xml version="1.0" encoding="UTF-8"?>
<svg id="Layer_1" data-name="Layer 1" xmlns="http://www.w3.org/2000/svg" xmlns:xlink="http://www.w3.org/1999/xlink" viewBox="0 0 128 128">
  <defs>
    <style>
      .cls-1 {
        fill: url(#linear-gradient);
      }

      .cls-2 {
        fill: url(#linear-gradient-3);
      }

      .cls-3 {
        fill: url(#linear-gradient-4);
      }

      .cls-4 {
        fill: url(#linear-gradient-2);
      }

      .cls-5 {
        fill: url(#linear-gradient-6);
      }

      .cls-6 {
        fill: url(#linear-gradient-5);
      }
    </style>
    <linearGradient id="linear-gradient" x1="64" y1="128.39" x2="64" y2="2.91" gradientUnits="userSpaceOnUse">
      <stop offset="0" stop-color="#6d1ac7"/>
      <stop offset="1" stop-color="#a84fff"/>
    </linearGradient>
    <linearGradient id="linear-gradient-2" x1="28.11" y1="128.39" x2="28.11" y2="2.91" xlink:href="#linear-gradient"/>
    <linearGradient id="linear-gradient-3" x1="99.89" y1="128.39" x2="99.89" y2="2.91" xlink:href="#linear-gradient"/>
    <linearGradient id="linear-gradient-4" x1="51.93" y1="128.39" x2="51.93" y2="2.91" xlink:href="#linear-gradient"/>
    <linearGradient id="linear-gradient-5" x1="76.07" y1="128.39" x2="76.07" y2="2.91" xlink:href="#linear-gradient"/>
    <linearGradient id="linear-gradient-6" x1="63.99" y1="128.39" x2="63.99" y2="2.91" xlink:href="#linear-gradient"/>
  </defs>
  <path class="cls-1" d="m95.28,63.28c2.09-2.08,3.46-4.8,4.13-8.12.28-1.42.38-2.89.44-4.34.09-2.27.15-4.55.15-6.83h0c0-2.28-.07-4.56-.15-6.83-.06-1.45-.15-2.92-.44-4.34-.67-3.32-2.04-6.04-4.13-8.12-2.08-2.09-4.8-3.46-8.12-4.13-1.42-.28-2.89-.38-4.34-.44-2.34-.09-4.68-.15-7.02-.15-.06,0-.13,0-.19,0h-9.29l-.69-8.23c2.51-.72,4.35-3.02,4.35-5.77,0-3.31-2.69-6-6-6s-6,2.69-6,6c0,2.74,1.84,5.05,4.35,5.77l-.69,8.23h-9.29c-.06,0-.13,0-.19,0-2.34,0-4.68.06-7.02.15-1.45.06-2.92.15-4.34.44-3.32.67-6.04,2.04-8.12,4.13-2.09,2.08-3.46,4.8-4.13,8.12-.28,1.42-.38,2.89-.44,4.34-.09,2.27-.15,4.55-.15,6.83h0c0,2.28.07,4.56.15,6.83.06,1.45.15,2.92.44,4.34.67,3.32,2.04,6.04,4.13,8.12,2.08,2.09,4.8,3.46,8.12,4.13,1.42.28,2.89.38,4.34.44,2.34.09,4.68.15,7.02.15h11.81v4c0,2.88,2.96,4.82,5.6,3.67l21.51-9.5h-.02c1.6-.73,3-1.68,4.19-2.88Zm-4.95-4.95l-.02.02c-.5.5-1.09.92-1.77,1.27h0s-.13.07-.13.07c-.21.1-.43.2-.65.29l-7.01,3.09h0l-9.06,4c-.33.15-.7-.1-.7-.46v-3.62c0-1.1-.9-2-2-2h-16.81c-1.96,0-4.1-.05-6.75-.15-1.04-.04-2.24-.11-3.23-.3-1.97-.39-3.45-1.11-4.53-2.2l-.02-.02-.02-.02c-1.09-1.08-1.8-2.56-2.2-4.53-.2-.98-.26-2.18-.3-3.23-.1-2.57-.15-4.66-.15-6.55,0-1.91.05-4,.15-6.57.04-1.04.11-2.24.3-3.23.39-1.97,1.11-3.45,2.2-4.53l.02-.02.02-.02c1.08-1.09,2.56-1.8,4.53-2.2.98-.2,2.18-.26,3.23-.3,2.64-.1,4.79-.15,6.75-.15h.19s23.26,0,23.26,0h.18c1.96,0,4.11.05,6.75.15,1.04.04,2.24.11,3.23.3,1.97.39,3.45,1.11,4.53,2.2l.02.02.02.02c1.09,1.08,1.8,2.56,2.2,4.53.2.98.26,2.18.3,3.23.1,2.57.14,4.66.15,6.55,0,1.91-.05,4-.15,6.57-.04,1.04-.11,2.24-.3,3.23-.39,1.97-1.11,3.45-2.2,4.53l-.02.02Z"/>
  <path class="cls-4" d="m32.61,77.84c-4.46,2.88-12.39,8.46-12.39,11.6,0,3.53,10.33,1.07,14.31,0,.9-.24,1.51-1.08,1.48-2.01l-.31-7.99c-.06-1.55-1.78-2.45-3.09-1.6Z"/>
  <path class="cls-2" d="m95.39,77.84c-1.3-.84-3.03.05-3.09,1.6l-.31,7.99c-.04.93.58,1.76,1.48,2.01,3.98,1.08,14.31,3.54,14.31,0,0-3.14-7.93-8.72-12.39-11.6Z"/>
  <path class="cls-3" d="m53.16,37h-2.46c-1.02,0-1.88.77-1.99,1.79-.37,3.48-.37,6.95,0,10.43.11,1.02.97,1.79,1.99,1.79h2.46c1.02,0,1.88-.77,1.99-1.79.37-3.48.37-6.95,0-10.43-.11-1.02-.97-1.79-1.99-1.79Z"/>
  <path class="cls-6" d="m77.3,37h-2.46c-1.02,0-1.88.77-1.99,1.79-.37,3.48-.37,6.95,0,10.43.11,1.02.97,1.79,1.99,1.79h2.46c1.02,0,1.88-.77,1.99-1.79.37-3.48.37-6.95,0-10.43-.11-1.02-.97-1.79-1.99-1.79Z"/>
  <path class="cls-5" d="m85.5,76h-3.08c-1.06,0-1.94.83-2,1.88-.2,3.81-.61,7.71-1.19,11.53-1.34,8.67-4.24,23.55-11.18,29.13-4.61,3.43-9.1.25-11.69-4.15-5.79-9.79-8.07-24.81-8.76-36.51-.06-1.06-.94-1.88-1.99-1.88h-3.11c-1.11,0-2.01.91-2,2.03.03,4.17.36,8.24.84,12.38,1.58,11.82,5.21,31.93,17.91,36.75,3.41,1.28,7.35,1.05,10.66-.44,8.27-4.03,11.91-14,14.12-22.1,2.24-8.78,3.39-17.61,3.49-26.62.01-1.11-.89-2.01-2-2.01Z"/>
</svg>