<?xml version="1.0" encoding="UTF-8"?>
<svg id="Layer_1" data-name="Layer 1" xmlns="http://www.w3.org/2000/svg" xmlns:xlink="http://www.w3.org/1999/xlink" viewBox="0 0 32 32">
  <defs>
    <style>
      .cls-1 {
        fill: url(#linear-gradient);
      }

      .cls-2 {
        fill: url(#linear-gradient-3);
      }

      .cls-3 {
        fill: url(#linear-gradient-4);
      }

      .cls-4 {
        fill: url(#linear-gradient-2);
      }

      .cls-5 {
        fill: url(#linear-gradient-6);
      }

      .cls-6 {
        fill: url(#linear-gradient-5);
      }
    </style>
    <linearGradient id="linear-gradient" x1="16" y1="32.1" x2="16" y2=".73" gradientUnits="userSpaceOnUse">
      <stop offset="0" stop-color="#6d1ac7"/>
      <stop offset="1" stop-color="#a84fff"/>
    </linearGradient>
    <linearGradient id="linear-gradient-2" x1="7.03" y1="32.1" x2="7.03" y2=".73" xlink:href="#linear-gradient"/>
    <linearGradient id="linear-gradient-3" x1="24.97" y1="32.1" x2="24.97" y2=".73" xlink:href="#linear-gradient"/>
    <linearGradient id="linear-gradient-4" x1="12.98" y1="32.1" x2="12.98" y2=".73" xlink:href="#linear-gradient"/>
    <linearGradient id="linear-gradient-5" x1="19.02" y1="32.1" x2="19.02" y2=".73" xlink:href="#linear-gradient"/>
    <linearGradient id="linear-gradient-6" x1="16" y1="32.1" x2="16" y2=".73" xlink:href="#linear-gradient"/>
  </defs>
  <path class="cls-1" d="m23.82,15.82c.52-.52.87-1.2,1.03-2.03.07-.35.1-.72.11-1.08.02-.57.04-1.14.04-1.71h0c0-.57-.02-1.14-.04-1.71-.01-.36-.04-.73-.11-1.08-.17-.83-.51-1.51-1.03-2.03-.52-.52-1.2-.87-2.03-1.03-.35-.07-.72-.1-1.08-.11-.58-.02-1.17-.04-1.75-.04-.02,0-.03,0-.05,0h-2.32l-.17-2.06c.63-.18,1.09-.76,1.09-1.44C17.5.67,16.83,0,16,0s-1.5.67-1.5,1.5c0,.69.46,1.26,1.09,1.44l-.17,2.06h-2.32s-.03,0-.05,0c-.58,0-1.17.02-1.75.04-.36.01-.73.04-1.08.11-.83.17-1.51.51-2.03,1.03-.52.52-.87,1.2-1.03,2.03-.07.35-.1.72-.11,1.08-.02.57-.04,1.14-.04,1.71h0c0,.57.02,1.14.04,1.71.01.36.04.73.11,1.08.17.83.51,1.51,1.03,2.03.52.52,1.2.87,2.03,1.03.35.07.72.1,1.08.11.58.02,1.17.04,1.75.04h2.95v1c0,.72.74,1.2,1.4.92l5.38-2.38h0c.4-.18.75-.42,1.05-.72Zm-1.24-1.24h0c-.12.13-.27.23-.44.32h0s-.03.02-.03.02c-.05.03-.11.05-.16.07l-1.75.77h0l-2.27,1c-.08.04-.18-.02-.18-.11v-.9c0-.28-.22-.5-.5-.5h-4.2c-.49,0-1.03-.01-1.69-.04-.26,0-.56-.03-.81-.08-.49-.1-.86-.28-1.13-.55h0s0,0,0,0c-.27-.27-.45-.64-.55-1.13-.05-.25-.07-.55-.08-.81-.02-.64-.04-1.16-.04-1.64,0-.48.01-1,.04-1.64,0-.26.03-.56.08-.81.1-.49.28-.86.55-1.13h0s0,0,0,0c.27-.27.64-.45,1.13-.55.25-.05.55-.07.81-.08.66-.03,1.2-.04,1.69-.04h.05s5.81,0,5.81,0h.04c.49,0,1.03.01,1.69.04.26.01.56.03.81.08.49.1.86.28,1.13.55h0s0,0,0,0c.27.27.45.64.55,1.13.05.25.07.55.08.81.02.64.04,1.16.04,1.64,0,.48-.01,1-.04,1.64,0,.26-.03.56-.08.81-.1.49-.28.86-.55,1.13h0Z"/>
  <path class="cls-4" d="m8.15,19.46c-1.11.72-3.1,2.12-3.1,2.9,0,.88,2.58.27,3.58,0,.23-.06.38-.27.37-.5l-.08-2c-.01-.39-.45-.61-.77-.4Z"/>
  <path class="cls-2" d="m23.85,19.46c-.33-.21-.76.01-.77.4l-.08,2c0,.23.14.44.37.5.99.27,3.58.88,3.58,0,0-.79-1.98-2.18-3.1-2.9Z"/>
  <path class="cls-3" d="m13.29,9.25h-.62c-.26,0-.47.19-.5.45-.09.87-.09,1.74,0,2.61.03.25.24.45.5.45h.62c.26,0,.47-.19.5-.45.09-.87.09-1.74,0-2.61-.03-.25-.24-.45-.5-.45Z"/>
  <path class="cls-6" d="m19.32,9.25h-.62c-.26,0-.47.19-.5.45-.09.87-.09,1.74,0,2.61.03.25.24.45.5.45h.62c.26,0,.47-.19.5-.45.09-.87.09-1.74,0-2.61-.03-.25-.24-.45-.5-.45Z"/>
  <path class="cls-5" d="m21.37,19h-.77c-.26,0-.49.21-.5.47-.05.95-.15,1.93-.3,2.88-.34,2.17-1.06,5.89-2.79,7.28-1.15.86-2.28.06-2.92-1.04-1.45-2.45-2.02-6.2-2.19-9.13-.02-.26-.23-.47-.5-.47h-.78c-.28,0-.5.23-.5.51,0,1.04.09,2.06.21,3.1.4,2.95,1.3,7.98,4.48,9.19.85.32,1.84.26,2.66-.11,2.07-1.01,2.98-3.5,3.53-5.53.56-2.19.85-4.4.87-6.65,0-.28-.22-.5-.5-.5Z"/>
</svg>